<svg width="20" height="20" viewBox="0 0 20 20" fill="none" xmlns="http://www.w3.org/2000/svg">
<path d="M8.73464 16.7949C9.03557 17.0795 9.51026 17.0663 9.79489 16.7654C10.0795 16.4644 10.0663 15.9897 9.76536 15.7051L4.52632 10.75H17.25C17.6642 10.75 18 10.4142 18 10C18 9.58579 17.6642 9.25 17.25 9.25H4.52405L9.76536 4.29274C10.0663 4.00812 10.0795 3.53343 9.79489 3.2325C9.51026 2.93156 9.03557 2.91834 8.73464 3.20296L2.31742 9.27241C2.15112 9.42969 2.05112 9.6298 2.01741 9.83859C2.00601 9.89058 2 9.94459 2 10C2 10.0576 2.00649 10.1137 2.01878 10.1675C2.05377 10.3733 2.15331 10.5702 2.31742 10.7254L8.73464 16.7949Z" fill="#F60D04"/>
</svg>
