<svg width="30" height="30" viewBox="0 0 30 30" fill="none" xmlns="http://www.w3.org/2000/svg">
<path d="M18.887 11.5116C19.0199 11.5116 19.0864 11.5116 19.1528 11.5116C20.3488 11.5116 21.4784 11.5116 22.6744 11.5116C23.4718 11.5116 23.9369 11.9103 24.1362 12.7076C24.1362 12.774 24.2027 12.9069 24.2027 12.9734C24.2027 13.1727 24.2691 13.3056 24.5349 13.372C24.8007 13.5049 24.9336 13.7707 25 14.0365C25 14.3687 24.8671 14.6345 24.5349 14.7674C24.402 14.8338 24.402 14.9003 24.402 14.9667C24.2691 16.5614 24.0698 18.0897 23.9369 19.6843C23.8704 20.083 23.8704 20.4817 23.804 20.8804C23.7375 21.5448 23.206 22.0099 22.5415 22.0099C22.1429 22.0099 21.7442 22.0099 21.3455 22.0099C16.8272 22.0099 12.309 22.0099 7.7907 22.0099C7.32558 22.0099 6.92691 21.877 6.66113 21.5448C6.46179 21.3455 6.39535 21.0797 6.3289 20.8139C6.12957 19.0199 5.93023 17.1594 5.7309 15.3654C5.7309 15.299 5.7309 15.2325 5.7309 15.1661C5.7309 14.9667 5.66445 14.7674 5.46512 14.6345C5.06645 14.5681 5 14.3023 5 13.9701C5.06645 13.6378 5.19934 13.4385 5.53156 13.3056C5.66445 13.3056 5.66445 13.2392 5.7309 13.1063C5.7309 12.9069 5.79734 12.774 5.86379 12.5747C5.99668 11.9103 6.52824 11.5116 7.19269 11.5116C8.3887 11.5116 9.58472 11.5116 10.7807 11.5116C10.8472 11.5116 10.9136 11.5116 11.0465 11.5116C11.0465 11.3122 11.0465 11.1129 11.0465 10.9136C11.0465 10.7807 11.0465 10.6478 11.2458 10.5149C11.3123 10.5149 11.3123 10.382 11.3123 10.3156C11.3123 9.98335 11.3123 9.71756 11.3123 9.38534C11.3123 8.52155 11.8439 7.98999 12.7076 7.98999C14.2359 7.98999 15.6977 7.98999 17.2259 7.98999C18.0897 7.98999 18.6213 8.52155 18.6213 9.38534C18.6213 9.65112 18.6213 9.85046 18.6213 10.1162C18.6213 10.3156 18.5548 10.4485 18.8206 10.5814C18.887 10.5814 18.887 10.7807 18.887 10.8471C18.887 11.1129 18.887 11.3122 18.887 11.5116ZM6.19601 14.9003C6.39535 16.8936 6.59468 18.8206 6.79402 20.7475C6.86047 21.3455 7.0598 21.5448 7.72425 21.5448C11.6445 21.5448 15.4983 21.5448 19.4186 21.5448C20.4153 21.5448 21.412 21.5448 22.4086 21.5448C22.8073 21.5448 23.0731 21.279 23.1395 20.8804C23.1395 20.7475 23.1395 20.6146 23.206 20.4817C23.3389 19.0863 23.4718 17.691 23.6711 16.2956C23.7375 15.8305 23.7375 15.4318 23.804 14.9667C22.7409 14.9667 21.7442 14.9667 20.6811 14.9667C20.6811 15.299 20.6811 15.6312 20.6811 15.897C20.6811 16.1627 20.5482 16.2956 20.2824 16.2956C19.6844 16.2956 19.0864 16.2956 18.4884 16.2956C18.0897 16.2956 18.0233 16.2292 18.0233 15.8305C18.0233 15.5647 18.0233 15.2325 18.0233 14.9667C15.9635 14.9667 13.9701 14.9667 11.9103 14.9667C11.9103 15.299 11.9103 15.6312 11.9103 15.897C11.9103 16.1627 11.8439 16.2956 11.5116 16.2956C11.113 16.2956 10.7143 16.2956 10.2492 16.2956C9.18605 16.2956 9.25249 16.4285 9.25249 15.299C9.25249 15.1661 9.25249 15.0332 9.25249 14.9003C8.25581 14.9003 7.25914 14.9003 6.19601 14.9003ZM23.6711 13.3056C23.6711 13.1727 23.6047 13.0398 23.6047 12.9069C23.4718 12.3089 23.2724 12.1096 22.608 12.1096C17.4917 12.1096 12.4419 12.1096 7.32558 12.1096C7.19269 12.1096 7.0598 12.1096 6.99336 12.1096C6.72757 12.176 6.52824 12.3089 6.46179 12.5747C6.39535 12.774 6.3289 13.0398 6.26246 13.3056C12.0432 13.3056 17.8239 13.3056 23.6711 13.3056ZM12.907 9.65112C12.907 9.9169 12.907 10.1827 12.907 10.382C12.907 10.4485 12.907 10.5149 12.9734 10.5149C13.1063 10.5814 13.1728 10.7142 13.1728 10.9136C13.1728 11.1129 13.1728 11.3122 13.1728 11.5116C14.3688 11.5116 15.5648 11.5116 16.7608 11.5116C16.7608 11.3787 16.7608 11.2458 16.7608 11.1129C16.7608 10.9136 16.6944 10.6478 16.9601 10.5149V10.4485C16.9601 10.1827 16.9601 9.9169 16.9601 9.65112C15.6312 9.65112 14.3023 9.65112 12.907 9.65112ZM18.0233 10.5149C18.0233 10.1162 18.0233 9.65112 18.0233 9.25245C18.0233 8.92022 17.691 8.65444 17.3588 8.65444C16.9601 8.65444 16.495 8.65444 16.0963 8.65444C14.9668 8.65444 13.8372 8.65444 12.7741 8.65444C12.3754 8.65444 12.0432 8.85378 12.0432 9.25245C12.0432 9.65112 12.0432 10.0498 12.0432 10.5149C12.1761 10.5149 12.309 10.5149 12.4419 10.5149C12.4419 10.1827 12.4419 9.85046 12.4419 9.51823C12.4419 9.186 12.5083 9.11956 12.8405 9.11956C14.103 9.11956 15.299 9.11956 16.5615 9.11956C17.8239 9.11956 17.691 8.92022 17.691 10.2491C17.691 10.3156 17.691 10.4485 17.691 10.5149C17.7575 10.5149 17.8904 10.5149 18.0233 10.5149ZM18.0233 13.9036C15.9635 13.9036 13.9701 13.9036 11.9103 13.9036C11.9103 14.0365 11.9103 14.1694 11.9103 14.3023C13.9701 14.3023 15.9635 14.3023 18.0233 14.3023C18.0233 14.1694 18.0233 14.0365 18.0233 13.9036ZM9.91694 13.9036C9.91694 14.5016 9.91694 15.0996 9.91694 15.6312C10.3821 15.6312 10.8472 15.6312 11.3123 15.6312C11.3123 15.0332 11.3123 14.4352 11.3123 13.9036C10.8472 13.9036 10.3821 13.9036 9.91694 13.9036ZM18.6213 13.9036C18.6213 14.5016 18.6213 15.0996 18.6213 15.6312C19.0864 15.6312 19.5515 15.6312 20.0166 15.6312C20.0166 15.0332 20.0166 14.5016 20.0166 13.9036C19.5515 13.9036 19.0864 13.9036 18.6213 13.9036ZM9.31894 13.9036C9.25249 13.9036 9.25249 13.9036 9.18605 13.9036C8.05648 13.9036 6.99336 13.9036 5.86379 13.9036H5.79734C5.7309 13.9701 5.59801 14.0365 5.59801 14.1029C5.59801 14.1694 5.7309 14.2358 5.79734 14.3023C5.79734 14.3023 5.86379 14.3023 5.93023 14.3023C6.99336 14.3023 8.05648 14.3023 9.1196 14.3023C9.18605 14.3023 9.25249 14.3023 9.31894 14.3023C9.31894 14.1694 9.31894 14.0365 9.31894 13.9036ZM20.6146 14.3023C20.6811 14.3023 20.6811 14.3023 20.7475 14.3023C21.8771 14.3023 22.9402 14.3023 24.0698 14.3023C24.1362 14.3023 24.1362 14.3023 24.2027 14.3023C24.2691 14.2358 24.3355 14.1694 24.3355 14.1029C24.3355 14.0365 24.2691 13.9701 24.2027 13.9036C24.2027 13.9036 24.1362 13.9036 24.0698 13.9036C23.0066 13.9036 21.9435 13.9036 20.814 13.9036C20.7475 13.9036 20.6811 13.9036 20.6811 13.9036C20.6146 14.0365 20.6146 14.1694 20.6146 14.3023ZM11.6445 11.1129C11.6445 11.2458 11.6445 11.3787 11.6445 11.5116C11.9767 11.5116 12.2425 11.5116 12.5748 11.5116C12.5748 11.3787 12.5748 11.2458 12.5748 11.1129C12.2425 11.1129 11.9767 11.1129 11.6445 11.1129ZM18.289 11.5116C18.289 11.3787 18.289 11.2458 18.289 11.1129C17.9568 11.1129 17.691 11.1129 17.4253 11.1129C17.4253 11.2458 17.4253 11.3787 17.4253 11.5116C17.691 11.5116 17.9568 11.5116 18.289 11.5116Z" fill="#212121"/>
</svg>
