<svg width="30" height="30" viewBox="0 0 30 30" fill="none" xmlns="http://www.w3.org/2000/svg">
<path d="M12.3577 4.99976C12.4915 4.99976 12.6253 4.99976 12.6921 4.99976C13.1604 5.13354 13.361 5.46799 13.4948 5.86933C13.5617 6.13689 13.6286 6.40446 13.6955 6.67202C13.8962 6.60513 14.1637 6.60513 14.3644 6.53824C14.5651 6.53824 14.7658 6.47135 15.0333 6.47135C17.5083 6.33757 19.7156 7.00647 21.5886 8.54495C23.3277 10.0165 24.4649 11.8226 24.8662 14.0969C24.9331 14.4313 25 14.8327 25 15.1671C25 15.5685 25 15.9029 25 16.3043C25 16.5718 24.9331 16.8394 24.9331 17.04C24.6655 18.8461 23.9298 20.5184 22.7257 21.8562C21.321 23.4615 19.515 24.4649 17.4414 24.8662C17.1069 24.9331 16.7056 25 16.3711 25C15.9698 25 15.6353 25 15.234 25C15.1671 25 15.1671 25 15.1002 25C14.03 24.9331 13.0266 24.6656 12.0232 24.1973C8.54493 22.7257 6.33755 19.1805 6.47133 15.4347C6.47133 14.8996 6.60511 14.2975 6.672 13.6955C6.33755 13.6286 6.00309 13.5617 5.66864 13.4949C5.13352 13.3611 4.86595 12.8259 5.06663 12.2908C5.2673 11.7557 5.53486 11.2206 5.73553 10.6855C5.73553 10.6186 5.80242 10.4848 5.73553 10.4179C5.66864 10.0834 5.66864 9.81587 5.80242 9.54831C6.672 7.94294 7.87603 6.73891 9.4814 5.86933C9.81585 5.66866 10.0834 5.66866 10.351 5.73555C10.4179 5.73555 10.4848 5.73555 10.5516 5.73555C11.1537 5.53488 11.7557 5.26732 12.3577 4.99976ZM7.47468 13.9631C6.672 17.5752 8.34426 21.5217 11.8895 23.3278C15.3678 25.1338 19.6488 24.2642 22.2575 21.1873C24.7993 18.1772 24.9331 13.7624 22.5251 10.6186C20.117 7.40781 16.3042 6.8058 13.8962 7.40781C13.8962 7.4747 13.8962 7.5416 13.9631 7.60849C14.03 7.87605 14.0968 8.2105 13.8962 8.47806C13.8962 8.54495 13.8962 8.61184 13.8962 8.61184C13.8962 8.87941 13.8962 9.08008 13.8962 9.34764C13.7624 9.94965 13.361 10.4179 12.8259 10.7523C12.0901 11.2206 11.4881 11.7557 11.0199 12.4246C10.8192 12.6922 10.6854 12.9597 10.4848 13.2273C10.0165 13.8293 9.41451 14.03 8.67871 13.8962C8.61182 13.8962 8.47804 13.8962 8.41115 13.9631C8.21048 14.03 8.0767 14.0969 7.87603 14.03C7.74225 14.03 7.60847 13.9631 7.47468 13.9631ZM8.00981 13.2942C8.41115 12.0233 9.08006 10.953 10.0165 10.0165C10.953 9.08008 12.0232 8.41117 13.2942 8.00983C13.0935 7.27403 12.8928 6.60513 12.759 5.86933C12.6921 5.73555 12.6253 5.73555 12.4915 5.73555C11.8895 6.07 11.2874 6.33757 10.6854 6.60513C10.4848 6.67202 10.351 6.67202 10.1503 6.53824C10.0834 6.47135 9.94963 6.47135 9.88274 6.53824C8.41115 7.34092 7.27401 8.47806 6.53822 9.88276C6.47133 9.94965 6.47133 10.0834 6.53822 10.1503C6.73889 10.351 6.672 10.5517 6.53822 10.8192C6.27066 11.3544 6.06998 11.9564 5.80242 12.4915C5.73553 12.6253 5.73553 12.6922 5.86931 12.7591C6.60511 12.8928 7.27401 13.0935 8.00981 13.2942ZM13.1604 8.87941C11.1537 9.68209 9.74896 11.0868 8.94628 13.0935C9.28073 13.1604 9.61518 13.0266 9.81585 12.8259C9.94963 12.6922 10.0834 12.5584 10.1503 12.4246C10.7523 11.4881 11.4881 10.6855 12.4915 10.0834C12.6253 10.0165 12.759 9.88276 12.8928 9.74898C13.0935 9.54831 13.1604 9.28075 13.1604 8.87941Z" fill="#212121"/>
<path d="M11.0868 15.7691C11.0868 13.0266 13.4279 10.8861 16.1704 11.0868C18.4447 11.2874 20.2508 13.0935 20.4514 15.3678C20.5852 17.3745 19.515 19.2474 17.7089 20.0501C17.5751 20.117 17.3745 20.1839 17.2407 20.0501C17.1738 19.9832 17.1069 19.7825 17.1069 19.6488C17.1069 19.4481 17.2407 19.3812 17.4414 19.3143C18.1772 18.9799 18.7792 18.4447 19.1805 17.7089C20.5852 15.3009 19.0467 12.2239 16.3711 11.8895C14.4313 11.6219 12.6252 12.759 12.0901 14.632C11.555 16.5049 12.3577 18.4447 14.1637 19.3143C14.2306 19.3143 14.2306 19.3143 14.2975 19.3812C14.4982 19.515 14.632 19.7156 14.4982 19.9163C14.4313 20.117 14.1637 20.1839 13.9631 20.0501C13.0935 19.6488 12.3577 19.0467 11.8226 18.1772C11.2874 17.4414 11.0199 16.6387 11.0868 15.7691Z" fill="#212121"/>
<path d="M15.7693 14.2307C16.6389 14.2307 17.3078 14.9665 17.3078 15.7692C17.3078 16.6388 16.572 17.3746 15.7693 17.3077C14.8997 17.3077 14.2308 16.5719 14.2308 15.7023C14.1639 14.8996 14.8997 14.2307 15.7693 14.2307ZM15.7693 14.9665C15.301 14.9665 14.9666 15.301 14.9666 15.7692C14.9666 16.1705 15.301 16.5719 15.7693 16.5719C16.1706 16.5719 16.572 16.1705 16.572 15.7692C16.5051 15.301 16.1706 14.9665 15.7693 14.9665Z" fill="#212121"/>
<path d="M10.2171 16.1036C10.1502 16.3712 9.88268 16.5719 9.68201 16.505C9.21377 16.2374 8.74554 15.9699 8.3442 15.7023C8.14353 15.5685 8.14353 15.3678 8.21042 15.2341C8.27731 15.0334 8.47798 14.9665 8.67865 15.0334C9.14688 15.3009 9.61512 15.5685 10.0165 15.8361C10.0834 15.903 10.1502 16.0367 10.2171 16.1036Z" fill="#212121"/>
<path d="M23.328 16.0366C23.328 16.371 23.0604 16.5717 22.7928 16.4379C22.3246 16.1704 21.8564 15.9028 21.455 15.6352C21.2544 15.5015 21.2544 15.3008 21.3213 15.167C21.3881 14.9663 21.6557 14.8994 21.7895 15.0332C22.2577 15.3008 22.726 15.5683 23.1273 15.8359C23.2611 15.9028 23.328 16.0366 23.328 16.0366Z" fill="#212121"/>
<path d="M21.1205 18.0435C21.2543 18.1103 21.3212 18.1772 21.3881 18.311C21.6556 18.7124 21.8563 19.1137 22.1239 19.5819C22.2576 19.7826 22.1907 19.9833 21.9901 20.1171C21.7894 20.2508 21.5887 20.184 21.4549 19.9833C21.1874 19.5819 20.9867 19.1137 20.7192 18.7124C20.5854 18.3779 20.786 18.0435 21.1205 18.0435Z" fill="#212121"/>
<path d="M10.016 19.4482C9.81538 19.4482 9.54782 19.4482 9.34714 19.4482C9.07958 19.4482 8.9458 19.3144 8.9458 19.0469C8.9458 18.8462 9.14647 18.6455 9.34714 18.6455C9.81538 18.6455 10.2836 18.6455 10.7518 18.6455C11.0194 18.6455 11.1532 18.7793 11.1532 19.0469C11.1532 19.2475 11.0194 19.4482 10.7518 19.4482C10.4843 19.4482 10.2836 19.4482 10.016 19.4482Z" fill="#212121"/>
<path d="M20.1168 9.6821C20.0499 9.81589 19.9831 9.94967 19.8493 10.0166C19.4479 10.2841 18.9797 10.4848 18.5784 10.7524C18.3777 10.8861 18.177 10.8192 18.0432 10.6186C17.9095 10.4179 17.9763 10.2172 18.177 10.0834C18.5784 9.81589 19.0466 9.61521 19.4479 9.34765C19.7824 9.21387 20.0499 9.34765 20.1168 9.6821Z" fill="#212121"/>
<path d="M19.4482 21.5217C19.4482 21.7892 19.4482 21.9899 19.4482 22.2575C19.4482 22.525 19.3144 22.6588 19.0469 22.6588C18.8462 22.6588 18.6455 22.525 18.6455 22.2575C18.6455 21.7892 18.6455 21.321 18.6455 20.8528C18.6455 20.5852 18.8462 20.4514 19.0469 20.4514C19.2475 20.4514 19.4482 20.6521 19.4482 20.8528C19.4482 21.0534 19.4482 21.2541 19.4482 21.5217Z" fill="#212121"/>
<path d="M13.4953 21.1871C13.4284 21.254 13.3615 21.3878 13.2946 21.4547C12.8932 21.7223 12.4919 21.9229 12.0237 22.1905C11.823 22.3243 11.6223 22.2574 11.4885 22.0567C11.3548 21.856 11.4217 21.6554 11.6223 21.5216C12.0237 21.254 12.4919 21.0534 12.8932 20.7858C13.1608 20.652 13.4953 20.8527 13.4953 21.1871Z" fill="#212121"/>
<path d="M16.5051 21.7892C16.5051 21.8561 16.4382 21.923 16.4382 21.9899C16.2375 22.3912 15.9699 22.7926 15.7693 23.127C15.6355 23.3277 15.4348 23.4615 15.2341 23.3277C15.0335 23.1939 14.9666 22.9932 15.1004 22.7257C15.301 22.3243 15.5686 21.923 15.7693 21.5217C15.903 21.321 16.0368 21.2541 16.2375 21.321C16.3713 21.3879 16.5051 21.5885 16.5051 21.7892Z" fill="#212121"/>
<path d="M15.3676 10.2171C15.0332 10.1502 14.8325 9.88268 15.0332 9.61512C15.3008 9.14688 15.5014 8.74554 15.769 8.3442C15.9028 8.14353 16.1034 8.14353 16.3041 8.21042C16.5048 8.3442 16.5717 8.54487 16.4379 8.74554C16.1703 9.14688 15.9697 9.61512 15.7021 10.0165C15.6352 10.0834 15.5014 10.1502 15.3676 10.2171Z" fill="#212121"/>
<path d="M21.4545 12.8259C21.187 12.8259 20.9863 12.8259 20.7187 12.8259C20.5181 12.8259 20.3174 12.6921 20.3174 12.4245C20.3174 12.2239 20.4512 12.0232 20.7187 12.0232C21.187 12.0232 21.7221 12.0232 22.1903 12.0232C22.391 12.0232 22.5917 12.2239 22.5248 12.4245C22.5248 12.6252 22.391 12.759 22.1234 12.759C22.1234 12.759 22.1234 12.759 22.0565 12.759C21.9228 12.8259 21.6552 12.8259 21.4545 12.8259Z" fill="#212121"/>
<path d="M11.2207 7.54153C11.4214 7.54153 11.622 7.7422 11.622 7.94287C11.622 8.14354 11.4214 8.34422 11.2207 8.34422C11.02 8.34422 10.8193 8.14354 10.8193 7.94287C10.8193 7.67531 11.02 7.47464 11.2207 7.54153Z" fill="#212121"/>
<path d="M8.2773 11.2207C8.2773 11.4214 8.07662 11.622 7.87595 11.622C7.67528 11.622 7.47461 11.4214 7.47461 11.2207C7.47461 11.02 7.67528 10.8193 7.87595 10.8193C8.14351 10.8193 8.2773 11.02 8.2773 11.2207Z" fill="#212121"/>
</svg>
