<svg width="30" height="30" viewBox="0 0 30 30" fill="none" xmlns="http://www.w3.org/2000/svg">
<path d="M25 20.174C25 20.374 25 20.574 25 20.8406C25 21.0406 24.9333 21.174 24.7333 21.2406C24.4 21.374 24.0667 21.574 23.7333 21.774C23.6667 21.8406 23.5333 21.9073 23.5333 21.974C23.2 22.9073 22.3333 23.574 21.4 23.574C20.4 23.574 19.5333 23.0406 19.1333 22.0406C19.0667 21.9073 19 21.9073 18.8667 21.9073C16.1333 21.9073 13.4 21.9073 10.7333 21.9073C10.6 21.9073 10.5333 21.9073 10.4667 22.0406C10.0667 22.974 9.2 23.574 8.2 23.574C7.26667 23.574 6.4 22.9073 6.06667 21.974C6.06667 21.9073 5.93333 21.774 5.86667 21.7073C5.6 21.5073 5.4 21.374 5.13333 21.2406C5.06667 21.1073 5 20.974 5 20.8406C5.13333 19.774 5.2 18.6406 5.33333 17.574C5.33333 17.4406 5.46667 17.374 5.53333 17.3073C5.86667 17.1073 6.13333 16.9073 6.46667 16.7073C7.2 16.174 8 15.7073 8.73333 15.174C9.26667 14.774 9.86667 14.574 10.5333 14.574C11.9333 14.574 13.3333 14.574 14.7333 14.574C15.2 14.574 15.6 14.6406 16 14.8406C17.0667 15.374 18.1333 15.9073 19.2 16.4406C19.5333 16.574 19.8667 16.6406 20.2 16.7073C21.0667 16.8406 21.9333 16.974 22.8 17.1073C24 17.3073 24.9333 18.374 25 19.574C25 19.774 25 19.974 25 20.174ZM19 21.2406C19 20.9073 19 20.5073 19 20.174C19 19.3073 18.7333 18.4406 18.2667 17.7073C18.2 17.574 18.1333 17.574 18 17.574C16.7333 17.574 15.4667 17.574 14.2 17.574C14.1333 17.574 14.0667 17.574 14 17.574C14 18.774 14 20.0406 14 21.2406C15.6667 21.2406 17.3333 21.2406 19 21.2406ZM10.6667 21.2406C11.5333 21.2406 12.4667 21.2406 13.3333 21.2406C13.3333 20.0406 13.3333 18.774 13.3333 17.574H13.2667C11.9333 17.574 10.6 17.574 9.33333 17.574C9.26667 17.574 9.2 17.574 9.2 17.6406C8.86667 18.0406 8.73333 18.4406 8.73333 18.974C10.0667 19.174 10.6667 20.2406 10.6667 21.2406ZM18.8667 17.4406C19.2667 18.1073 19.5333 18.8406 19.6667 19.6406C20.4 18.974 21.2 18.7073 22.1333 19.0406C23.0667 19.374 23.5333 20.0406 23.6667 21.0406C23.8667 20.974 24.0667 20.8406 24.2 20.774C24.2667 20.7073 24.3333 20.6406 24.3333 20.574C24.3333 20.2406 24.3333 19.974 24.3333 19.6406C24.3333 18.7073 23.6667 17.9073 22.7333 17.774C21.8 17.6406 20.8 17.5073 19.8667 17.374C19.5333 17.2406 19.2 17.2406 18.8667 17.4406ZM13.3333 16.8406C13.3333 16.3073 13.3333 15.774 13.3333 15.174C12.4667 15.174 11.6667 15.2406 10.8 15.174C9.86667 15.1073 9.2 15.574 8.46667 16.174C8.66667 16.374 8.86667 16.574 9.06667 16.7073C9.13333 16.774 9.26667 16.8406 9.4 16.8406C10.0667 16.8406 10.7333 16.8406 11.3333 16.8406C12 16.8406 12.6667 16.8406 13.3333 16.8406ZM7.93333 16.574C7.33333 16.974 6.73333 17.3073 6.13333 17.7073C6.06667 17.774 6.06667 17.8406 6 17.9073C5.93333 18.774 5.8 19.6406 5.73333 20.5073C5.73333 20.8406 5.73333 20.8406 6.06667 20.974C6.26667 19.8406 6.93333 19.174 8.06667 18.974C8.06667 18.3073 8.26667 17.774 8.66667 17.2406C8.33333 16.974 8.13333 16.774 7.93333 16.574ZM8.33333 22.9073C9.26667 22.9073 10 22.174 10 21.2406C10 20.3073 9.26667 19.574 8.33333 19.574C7.4 19.574 6.66667 20.3073 6.66667 21.2406C6.66667 22.174 7.4 22.9073 8.33333 22.9073ZM21.3333 19.574C20.4 19.574 19.6667 20.3073 19.6667 21.2406C19.6667 22.174 20.4 22.9073 21.3333 22.9073C22.2667 22.9073 23 22.174 23 21.2406C23 20.3073 22.2667 19.574 21.3333 19.574ZM18.4 16.8406C17.5333 16.374 16.6667 15.9073 15.8 15.4406C15.2 15.1073 14.6 15.174 14 15.174C14 15.7073 14 16.2406 14 16.774C15.4667 16.8406 16.9333 16.8406 18.4 16.8406Z" fill="#212121"/>
<path d="M20.9997 10.7072C20.9997 12.5739 19.7997 14.2406 18.0664 14.8406C17.9997 14.8406 17.9997 14.8406 17.933 14.9072C17.733 14.9739 17.5997 14.8406 17.533 14.7072C17.4664 14.5072 17.5331 14.3739 17.7331 14.3072C17.9997 14.1739 18.1997 14.1072 18.4664 13.9739C19.7997 13.2406 20.5997 11.6406 20.333 10.1739C20.0664 8.57389 18.7997 7.37389 17.2664 7.17389C15.6664 6.84056 14.1331 7.64056 13.3997 9.04056C12.6664 10.4406 12.933 12.1072 13.9997 13.2406C14.0664 13.3072 14.133 13.3739 14.133 13.4406C14.2664 13.5739 14.2664 13.7072 14.133 13.9072C13.9997 14.0406 13.7997 14.0406 13.6664 13.9072L13.5997 13.8406C12.3997 12.5739 11.9997 11.1739 12.5331 9.50723C12.9997 7.84056 14.1997 6.84056 15.8664 6.50723C18.2664 6.04056 20.533 7.64056 20.9997 10.0406C20.9997 10.2406 20.9997 10.4406 20.9997 10.7072Z" fill="#212121"/>
<path d="M15.9334 11.374C15.6001 11.374 15.3334 11.374 15.0668 11.374C14.9334 11.374 14.7334 11.374 14.6668 11.174C14.6001 11.0406 14.6668 10.9073 14.7334 10.774C15.6001 9.84062 16.4668 8.84062 17.3334 7.90729C17.4668 7.77396 17.6001 7.70729 17.8001 7.77396C18.0001 7.84062 18.0001 8.04062 18.0001 8.17396C17.9334 8.77396 17.8001 9.44062 17.7334 10.0406C18.0668 10.0406 18.3334 10.0406 18.6001 10.0406C18.7334 10.0406 18.9334 10.1073 19.0001 10.2406C19.0668 10.374 19.0001 10.5073 18.9334 10.6406C18.0668 11.574 17.2001 12.574 16.4001 13.5073C16.2668 13.6406 16.1334 13.7073 15.9334 13.6406C15.6668 13.574 15.6668 13.4406 15.6668 13.2406C15.8001 12.6406 15.8668 12.0406 15.9334 11.374ZM16.4668 12.2406C16.5334 12.2406 16.5334 12.3073 16.4668 12.2406C16.9334 11.774 17.4001 11.2406 17.8668 10.7073C17.6668 10.7073 17.5334 10.7073 17.4001 10.7073C17.0001 10.7073 16.8668 10.574 16.9334 10.174C17.0001 9.84062 17.0001 9.50729 17.0668 9.10729C17.0668 9.10729 17.0668 9.10729 17.0001 9.10729C16.5334 9.64062 16.0668 10.1073 15.6001 10.6406C15.8001 10.6406 15.9334 10.6406 16.0668 10.6406C16.4001 10.6406 16.5334 10.774 16.4668 11.174C16.6001 11.574 16.5334 11.9073 16.4668 12.2406Z" fill="#212121"/>
<path d="M15.3332 18.9071C15.1998 18.9071 15.0665 18.9071 14.9998 18.9071C14.7998 18.9071 14.6665 18.7738 14.6665 18.5738C14.6665 18.3738 14.7998 18.2405 14.9998 18.2405C15.2665 18.2405 15.4665 18.2405 15.7332 18.2405C15.9332 18.2405 16.0665 18.3738 16.0665 18.5738C16.0665 18.7738 15.9332 18.9071 15.7332 18.9071C15.5998 18.9071 15.4665 18.9071 15.3332 18.9071Z" fill="#212121"/>
<path d="M9.99993 18.2405C10.1333 18.2405 10.1999 18.2405 10.3333 18.2405C10.5333 18.2405 10.6666 18.3738 10.6666 18.5738C10.6666 18.7738 10.5333 18.9071 10.3333 18.9071C10.0666 18.9071 9.8666 18.9071 9.59993 18.9071C9.39993 18.9071 9.2666 18.7738 9.2666 18.5738C9.2666 18.3738 9.39993 18.2405 9.59993 18.2405C9.73327 18.2405 9.8666 18.2405 9.99993 18.2405Z" fill="#212121"/>
<path d="M8.3335 22.2405C7.80016 22.2405 7.3335 21.7738 7.3335 21.2405C7.3335 20.7071 7.80016 20.2405 8.3335 20.2405C8.86683 20.2405 9.3335 20.7071 9.3335 21.2405C9.3335 21.7738 8.86683 22.2405 8.3335 22.2405ZM8.3335 21.5738C8.5335 21.5738 8.66683 21.4405 8.66683 21.2405C8.66683 21.0405 8.5335 20.9071 8.3335 20.9071C8.1335 20.9071 8.00016 21.0405 8.00016 21.2405C8.00016 21.4405 8.1335 21.5738 8.3335 21.5738Z" fill="#212121"/>
<path d="M22.3335 21.2405C22.3335 21.7738 21.8668 22.2405 21.3335 22.2405C20.8002 22.2405 20.3335 21.7738 20.3335 21.2405C20.3335 20.7071 20.8002 20.2405 21.3335 20.2405C21.8668 20.2405 22.3335 20.7071 22.3335 21.2405ZM21.3335 20.9071C21.1335 20.9071 21.0002 21.0405 21.0002 21.2405C21.0002 21.4405 21.1335 21.5738 21.3335 21.5738C21.5335 21.5738 21.6668 21.4405 21.6668 21.2405C21.6668 21.0405 21.5335 20.9071 21.3335 20.9071Z" fill="#212121"/>
</svg>
