<svg width="30" height="30" viewBox="0 0 30 30" fill="none" xmlns="http://www.w3.org/2000/svg">
<path d="M5 10.4053C5.13394 10.0035 5.33486 9.60166 5.4688 9.19984C5.87063 8.19527 6.80823 7.86041 7.74582 8.19527C8.08068 8.32921 8.34857 8.46315 8.61645 8.59709C8.68342 8.66407 8.75039 8.66407 8.81737 8.53012C9.28617 8.06132 9.82194 7.92738 10.3577 8.19527C11.1614 8.53012 11.965 8.86498 12.7687 9.13286C12.8356 9.13286 12.9026 9.19984 13.0366 9.19984C13.1035 8.99892 13.1705 8.79801 13.3044 8.59709C12.9696 8.46315 12.6347 8.32921 12.3668 8.19527C11.898 8.06132 11.6302 7.6595 11.6971 7.1907C11.7641 6.78887 12.099 6.38704 12.5008 6.32007C12.7017 6.32007 12.9026 6.32007 13.1035 6.38704C14.309 6.85584 15.5145 7.32464 16.72 7.86041C17.2558 8.06132 17.5236 8.66407 17.3227 9.19984C17.1218 9.73561 16.5191 9.93652 15.9833 9.73561C15.7154 9.60166 15.4475 9.53469 15.1127 9.40075C15.0457 9.60166 14.9787 9.80258 14.8448 10.0035C15.0457 10.0705 15.2466 10.1374 15.4475 10.2714C16.1172 10.5393 16.787 10.8071 17.4567 11.075C18.3273 11.4099 18.6622 12.2805 18.1934 13.0842C18.1934 13.1511 18.1264 13.1511 18.1264 13.2181C17.9924 13.553 18.1264 13.7539 18.4612 13.7539C18.93 13.7539 19.3319 13.7539 19.8007 13.8209C20.9392 13.8878 22.0777 13.8878 23.1492 13.9548C23.4171 13.9548 23.618 14.0218 23.752 14.2227C23.8859 14.4236 24.0868 14.5575 24.2208 14.7585C24.6226 15.2273 24.4887 15.6961 23.9529 15.9639C22.2786 16.5667 20.6043 17.1694 18.93 17.8391C17.8585 18.241 16.72 18.6428 15.6484 19.0446C14.9787 19.3125 14.376 19.3125 13.7063 19.0446C11.6971 18.241 9.68799 17.4373 7.74582 16.6337C7.21005 16.4327 6.94217 15.9639 7.07611 15.3612C7.14308 15.0933 7.14308 14.8924 7.00914 14.6915C6.54034 13.8878 6.07154 13.0172 5.66971 12.2135C5.33486 11.6778 5.20091 11.2759 5 10.9411C5 10.7402 5 10.6062 5 10.4053ZM23.685 15.1603C23.5511 14.9594 23.4171 14.8254 23.2832 14.6915C23.2162 14.5575 23.0823 14.5575 22.9483 14.4906C21.408 14.4236 19.9346 14.4236 18.3943 14.3566C17.7246 14.3566 17.2558 13.8209 17.3897 13.1511C17.3897 12.9502 17.5236 12.8163 17.5906 12.6154C17.8585 12.2135 17.7246 11.8787 17.1888 11.6778C14.8448 10.7402 12.5008 9.80258 10.1568 8.86498C9.68799 8.59709 9.28617 8.79801 9.15222 9.33378C8.61645 11.3429 8.08068 13.2851 7.61188 15.2942C7.54491 15.6291 7.54491 15.763 7.87977 15.897C9.82194 16.7006 11.8311 17.5043 13.7732 18.3079C14.242 18.5089 14.7778 18.5089 15.2466 18.3079C17.5906 17.4373 19.9346 16.6337 22.2116 15.763C22.7474 15.5621 23.2162 15.3612 23.685 15.1603ZM8.48251 9.26681C8.14765 9.06589 7.8128 8.93195 7.41097 8.79801C6.8752 8.59709 6.33943 8.86498 6.13851 9.33378C6.00457 9.66864 5.9376 9.93652 5.80366 10.2044C5.60274 10.6062 5.66971 10.9411 5.87063 11.2759C6.33943 12.0796 6.74125 12.8833 7.21005 13.6869C7.21005 13.7539 7.27703 13.8209 7.344 13.8878C7.67885 12.3475 8.08068 10.8071 8.48251 9.26681ZM16.787 8.79801C16.787 8.59709 16.653 8.53012 16.5191 8.46315C15.9163 8.19527 15.3136 7.99435 14.7108 7.72647C14.1081 7.45858 13.5054 7.25767 12.9026 6.98978C12.6347 6.92281 12.4338 6.98978 12.3668 7.1907C12.3668 7.39161 12.4338 7.59252 12.6347 7.6595C13.2375 7.92738 13.9072 8.12829 14.5099 8.39618C15.1127 8.66407 15.6484 8.86498 16.2512 9.13286C16.5191 9.19984 16.72 9.06589 16.787 8.79801ZM14.5099 9.13286C14.309 9.06589 14.1081 8.99892 13.9072 8.86498C13.8402 9.06589 13.7732 9.26681 13.6393 9.46772C13.8402 9.53469 14.0411 9.60166 14.242 9.73561C14.309 9.53469 14.443 9.33378 14.5099 9.13286Z" fill="#212121"/>
<path d="M20.4032 21.3218C20.4032 20.9199 20.5371 20.4511 20.738 19.9823C21.2068 19.1117 21.6756 18.1741 22.1444 17.3035C22.4123 16.9017 22.9481 16.8347 23.216 17.2365C23.8857 18.3081 24.5554 19.3796 24.8903 20.5181C25.2921 21.9245 24.5554 23.2639 23.216 23.5988C21.7426 24.0006 20.3362 22.8621 20.4032 21.3218ZM22.6802 17.6383C22.2784 18.375 21.9435 18.9778 21.6087 19.7145C21.4077 20.1163 21.2068 20.5851 21.0729 21.0539C20.9389 21.7236 21.1399 22.2594 21.6756 22.7282C22.2114 23.13 22.8141 23.197 23.4169 22.9291C24.0196 22.6612 24.6224 21.7906 24.2875 20.719C23.8857 19.6475 23.2829 18.7099 22.6802 17.6383Z" fill="#212121"/>
<path d="M15.7824 12.4813C15.7154 12.4813 15.6484 12.4143 15.5815 12.4143C14.1751 11.8786 12.7687 11.2758 11.3623 10.7401C11.1613 10.6731 11.0944 10.4722 11.1613 10.2713C11.2283 10.0703 11.4292 10.0034 11.6301 10.1373C13.0365 10.6731 14.4429 11.2758 15.8493 11.8116C15.9833 11.8786 16.1842 12.0125 16.1172 12.1465C16.1172 12.2804 15.9833 12.3474 15.9163 12.4143C15.9163 12.4813 15.8493 12.4813 15.7824 12.4813Z" fill="#212121"/>
<path d="M9.95586 9.46777C10.0898 9.53474 10.2907 9.60172 10.4247 9.66869C10.5586 9.73566 10.5586 9.93657 10.4916 10.0705C10.4247 10.2045 10.2907 10.2714 10.1568 10.2714C10.0228 10.2045 9.88888 10.1375 9.75494 10.0705C9.621 10.0035 9.55403 9.8696 9.621 9.66869C9.621 9.53474 9.75494 9.46777 9.95586 9.46777Z" fill="#212121"/>
<path d="M23.6846 21.3886C23.6846 21.9244 23.2828 22.3262 22.747 22.3932C22.5461 22.3932 22.4122 22.3262 22.3452 22.1253C22.3452 21.9244 22.4122 21.7905 22.6131 21.7235C22.881 21.6565 22.948 21.5896 23.0149 21.3217C23.0149 21.1208 23.1489 20.9868 23.3498 20.9868C23.6177 20.9868 23.7516 21.1208 23.6846 21.3886Z" fill="#212121"/>
</svg>
