<svg width="30" height="30" viewBox="0 0 30 30" fill="none" xmlns="http://www.w3.org/2000/svg">
<path d="M5.89796 22.9429C5.81633 23.4327 6.06122 23.7592 6.30612 24.0857C6.71429 24.5755 7.28571 24.9021 7.93878 25.1469C9.32653 25.8 10.8776 26.0449 12.3469 26.2898C12.4286 26.2898 12.5102 26.2898 12.5918 26.2898C12.8367 26.3714 13 26.5347 12.9184 26.7796C12.9184 27.0245 12.6735 27.1878 12.4286 27.1061C11.7755 27.0245 11.2041 26.9429 10.551 26.8612C9.40816 26.6163 8.18367 26.2898 7.20408 25.7184C6.71429 25.3918 6.14286 25.0653 5.73469 24.6572C5.2449 24.249 5 23.5959 5 22.9429C5 17.7184 5 12.4939 5 7.2694C5 6.28981 5.32653 5.63675 6.06122 5.06532C6.95918 4.33062 8.02041 3.92246 9.08163 3.59593C11.449 2.94287 13.8163 2.69797 16.2653 2.86124C17.9796 2.86124 19.6939 3.10613 21.3265 3.67756C22.1429 3.92246 23.0408 4.33062 23.6939 4.82042C24.0204 5.06532 24.3469 5.47348 24.6735 5.80001C24.9184 6.12654 25 6.5347 25 6.94287C25 12.3306 25 17.6367 25 23.0245C25 23.6776 24.7551 24.1674 24.3469 24.5755C23.6122 25.3102 22.7143 25.8 21.7347 26.1265C20.102 26.698 18.3878 27.0245 16.6735 27.1061C15.9388 27.1878 15.1224 27.1061 14.3878 27.1878C14.3061 27.1878 14.2245 27.1878 14.1429 27.1878C13.898 27.1061 13.7347 26.9429 13.8163 26.698C13.8163 26.4531 13.9796 26.2898 14.2245 26.2898C14.6327 26.2898 15.1224 26.2898 15.5306 26.2898C17.8163 26.2082 20.102 25.8816 22.2245 24.9837C22.7959 24.7388 23.3673 24.4123 23.8571 23.9225C24.102 23.5959 24.3469 23.2694 24.2653 22.8612H24.1837C22.6327 23.7592 20.8367 24.249 19.0408 24.4939C15.8571 24.9837 12.6735 24.9021 9.4898 24.1674C8.26531 23.9225 7.12245 23.5143 5.97959 22.8612C5.97959 23.0245 5.89796 22.9429 5.89796 22.9429ZM15.0408 10.2898C16.1837 10.2082 17.3265 10.1265 18.4694 9.96328C19.9388 9.80001 21.3265 9.39185 22.6327 8.73879C23.1224 8.49389 23.5306 8.16736 23.9388 7.75919C24.3469 7.18777 24.4286 6.61634 23.9388 6.12654C23.6939 5.80001 23.3673 5.55511 22.9592 5.31021C22.1429 4.73879 21.1633 4.41226 20.1837 4.16736C17.0816 3.43266 13.9796 3.35103 10.8776 3.92246C9.57143 4.24899 8.34694 4.57552 7.20408 5.31021C6.79592 5.55511 6.38776 5.88164 6.06122 6.28981C5.81633 6.69797 5.73469 7.10613 6.06122 7.5143C6.22449 7.75919 6.46939 8.00409 6.71429 8.24899C7.36735 8.73879 8.02041 9.06532 8.7551 9.31022C10.7959 10.0449 12.9184 10.2082 15.0408 10.2898ZM19.449 23.7592C20.2653 23.5143 21 23.351 21.7347 23.1878C21.898 23.1061 21.9796 23.0245 21.9796 22.8612C21.9796 21.3102 21.9796 19.6776 21.9796 18.1265C21.9796 17.9633 21.9796 17.8 21.9796 17.6367C21.9796 17.3918 22.1429 17.2286 22.3878 17.2286C22.6327 17.2286 22.7959 17.3918 22.7959 17.6367C22.7959 17.7184 22.7959 17.8 22.7959 17.8816C22.7959 19.4327 22.7959 20.9021 22.7959 22.4531C22.7959 22.5347 22.7959 22.6163 22.7959 22.7796C23.2041 22.5347 23.6122 22.2898 24.0204 22.0449C24.1837 21.9633 24.2653 21.8 24.2653 21.6367C24.2653 18.3714 24.2653 15.1061 24.2653 11.8408C24.2653 11.7592 24.2653 11.6776 24.2653 11.5959C23.7755 11.8408 23.3673 12.0041 22.9592 12.249C22.8776 12.249 22.8776 12.4123 22.8776 12.4939C22.8776 12.9837 22.8776 13.5551 22.8776 14.0449C22.8776 14.698 22.8776 15.2694 22.8776 15.9225C22.8776 16.249 22.551 16.4939 22.3061 16.3306C22.1429 16.249 22.0612 16.0857 22.0612 15.8408C22.0612 14.8612 22.0612 13.8816 22.0612 12.8204C22.0612 12.7388 22.0612 12.6572 22.0612 12.5755C21.2449 12.8204 20.3469 12.9837 19.5306 13.1469C19.449 16.6572 19.449 20.1674 19.449 23.7592ZM24.1837 8.65715C23.6122 9.22858 22.9592 9.55511 22.2245 9.88164C20.7551 10.4531 19.2857 10.7796 17.7347 10.9429C14.7959 11.1878 11.9388 11.1061 9.08163 10.2898C7.93878 9.96328 6.79592 9.55511 5.89796 8.65715H5.81633C5.81633 9.14695 5.81633 9.63675 5.81633 10.1265C5.81633 10.2898 5.89796 10.4531 6.06122 10.5347C6.87755 11.1061 7.69388 11.4327 8.67347 11.7592C10.2245 12.249 11.7755 12.4939 13.4082 12.5755C16.102 12.7388 18.7143 12.5755 21.3265 11.8408C22.3061 11.5143 23.2857 11.1878 24.102 10.5347C24.1837 10.4531 24.2653 10.3714 24.2653 10.2898C24.1837 9.80001 24.1837 9.22858 24.1837 8.65715ZM13.8163 13.4735C13.8163 16.9837 13.8163 20.4939 13.8163 24.0041C14.6327 24.0041 15.449 24.0041 16.3469 24.0041C16.3469 20.4939 16.3469 16.9837 16.3469 13.4735C15.449 13.4735 14.6327 13.4735 13.8163 13.4735ZM10.6327 23.7592C10.6327 20.1674 10.6327 16.6572 10.6327 13.2286C9.81633 13.0653 9 12.8204 8.10204 12.6572C8.10204 12.7388 8.10204 12.8204 8.10204 12.9837C8.10204 16.1674 8.10204 19.351 8.10204 22.4531C8.10204 23.1878 8.10204 23.1878 8.7551 23.351C9.40816 23.4327 9.97959 23.5959 10.6327 23.7592ZM17.1633 13.3918C17.1633 16.9021 17.1633 20.4123 17.1633 24.0041C17.6531 23.9225 18.0612 23.9225 18.551 23.8408C18.551 20.3306 18.551 16.8204 18.551 13.3102C18.0612 13.3102 17.5714 13.3918 17.1633 13.3918ZM11.5306 13.3102C11.5306 16.8204 11.5306 20.3306 11.5306 23.8408C12.0204 23.9225 12.4286 23.9225 12.9184 24.0041C12.9184 20.4939 12.9184 16.9837 12.9184 13.4735C12.4286 13.3918 12.0204 13.3102 11.5306 13.3102ZM5.89796 11.5143C5.89796 11.5959 5.89796 11.5959 5.89796 11.5959C5.89796 14.9429 5.89796 18.2898 5.89796 21.6367C5.89796 21.7184 5.89796 21.8 5.97959 21.8C6.38776 22.1265 6.79592 22.4531 7.36735 22.6163C7.36735 22.5347 7.36735 22.4531 7.36735 22.4531C7.36735 19.1061 7.36735 15.7592 7.36735 12.4123V12.3306C7.36735 12.249 7.28571 12.1674 7.28571 12.1674C6.71429 12.0041 6.30612 11.7592 5.89796 11.5143Z" fill="#212121"/>
<path d="M14.9596 9.14687C13.8167 9.14687 12.5922 8.9836 11.4494 8.49381C11.1228 8.33054 10.8779 8.16728 10.6331 7.92238C9.89836 7.26932 9.89836 6.45299 10.6331 5.88156C11.2861 5.31013 12.0208 5.06524 12.8371 4.90197C13.0004 4.90197 13.082 4.82034 13.2453 4.82034C13.4902 4.82034 13.7351 4.90197 13.7351 5.14687C13.8167 5.39177 13.6535 5.55503 13.3269 5.63666C12.7555 5.79993 12.1841 5.96319 11.6126 6.20809C11.3677 6.28972 11.2045 6.45299 11.0412 6.61626C10.8779 6.77952 10.8779 7.02442 11.0412 7.18768C11.2045 7.35095 11.4494 7.51421 11.6943 7.67748C12.429 8.08564 13.2453 8.24891 14.1433 8.24891C15.4494 8.33054 16.8371 8.33054 18.0616 7.84075C18.3882 7.67748 18.7963 7.51421 19.0412 7.26932C19.3677 7.02442 19.3677 6.69789 19.0412 6.45299C18.5514 6.04483 17.8984 5.79993 17.3269 5.7183C16.6739 5.63666 15.9392 5.55503 15.2045 5.4734C15.1228 5.4734 14.9596 5.4734 14.878 5.4734C14.6331 5.39177 14.5514 5.2285 14.5514 4.9836C14.5514 4.7387 14.7147 4.57544 14.9596 4.57544C16.2657 4.57544 17.5718 4.65707 18.7147 5.2285C19.0412 5.39177 19.4494 5.63666 19.6943 5.96319C20.1841 6.45299 20.1841 7.10605 19.6943 7.67748C19.2861 8.16728 18.7147 8.41217 18.0616 8.57544C17.1637 9.06524 16.1024 9.14687 14.9596 9.14687Z" fill="#212121"/>
</svg>
