<svg width="20" height="21" viewBox="0 0 20 21" fill="none" xmlns="http://www.w3.org/2000/svg">
<path d="M10.2441 3.51196C10.0867 3.51196 9.94624 3.58474 9.85459 3.69849L9.76519 3.76415C8.03935 3.22983 6.07142 3.62251 4.70142 4.94217C3.48542 6.11348 3.02758 7.73853 3.32788 9.25153C3.31079 9.26666 3.29395 9.28221 3.27738 9.29817L2.49905 10.0479C1.8623 10.6613 1.8623 11.6557 2.49905 12.269C2.89663 12.652 3.44845 12.7959 3.9619 12.7006C4.02456 12.9892 4.17219 13.2641 4.40481 13.4882C4.71188 13.784 5.11095 13.9371 5.51329 13.9476C5.52413 14.3353 5.68312 14.7198 5.99026 15.0156C6.29733 15.3114 6.6964 15.4646 7.09874 15.4751C7.10962 15.8627 7.2686 16.2471 7.57571 16.543C8.17883 17.1239 9.1369 17.1546 9.77751 16.635L10.2148 17.0562C10.8548 17.6727 11.8925 17.6727 12.5325 17.0562C12.8385 16.7615 12.9981 16.3795 13.0116 15.9935C13.4113 15.9813 13.8071 15.8282 14.1123 15.5342C14.4182 15.2396 14.5771 14.8573 14.5892 14.4715C14.9843 14.4562 15.3746 14.3032 15.6763 14.0126C15.9188 13.779 16.069 13.4901 16.1268 13.188C16.6336 13.2748 17.1749 13.1296 17.5665 12.7523C18.2032 12.139 18.2032 11.1446 17.5665 10.5312L16.8476 9.83873L16.9935 9.28814C17.2914 8.16395 17.1412 6.97349 16.5745 5.95261C15.7384 4.44638 14.1163 3.51587 12.3618 3.51587L11.1325 3.51587C11.0796 3.51327 11.0264 3.51196 10.9729 3.51196H10.2441ZM12.6967 7.22789L15.1021 9.54489L15.105 9.54771L16.8462 11.225C17.0852 11.4552 17.0852 11.8284 16.8462 12.0586C16.6073 12.2888 16.2198 12.2888 15.9808 12.0586L14.6594 10.7858C14.5639 10.6938 14.4344 10.6421 14.2993 10.6421C14.1643 10.6421 14.0347 10.6938 13.9392 10.7858L13.926 10.7986C13.7271 10.9901 13.7271 11.3007 13.926 11.4923L14.9561 12.4846C15.1952 12.715 15.1952 13.0885 14.9561 13.3189C14.7379 13.529 14.3951 13.5477 14.1556 13.3738C13.9521 13.2262 13.6666 13.2461 13.4873 13.4205C13.308 13.5949 13.2901 13.8701 13.4455 14.0647C13.6298 14.2956 13.6118 14.6288 13.3921 14.8405C13.1708 15.0536 12.8216 15.0697 12.5817 14.8881C12.3795 14.7351 12.0905 14.7513 11.9081 14.926C11.7257 15.1006 11.7071 15.3789 11.8648 15.5746C12.0532 15.8086 12.0355 16.1474 11.8123 16.3624C11.5701 16.5958 11.1773 16.5958 10.935 16.3624L10.502 15.9453L10.6599 15.7932C11.2967 15.1799 11.2967 14.1854 10.6599 13.5721C10.3528 13.2763 9.95377 13.1232 9.55143 13.1126C9.54056 12.725 9.38157 12.3406 9.07446 12.0448C8.7674 11.749 8.36832 11.5958 7.96598 11.5853C7.95514 11.1977 7.79615 10.8132 7.48901 10.5173C7.09143 10.1344 6.53961 9.99051 6.02616 10.0858C5.9635 9.79716 5.81587 9.52223 5.58325 9.29817C5.22942 8.95734 4.75343 8.8059 4.29105 8.84386C4.13615 7.70463 4.51301 6.51115 5.42163 5.63592C6.31873 4.77178 7.53789 4.40696 8.70693 4.54144L7.25276 5.60953C6.46615 6.18729 6.3178 7.28401 6.92265 8.05C7.51905 8.80529 8.62438 8.9548 9.40002 8.3851L10.9755 7.22789H12.6967ZM7.84473 6.41548L10.4363 4.51196H10.9729C11.0133 4.51196 11.0534 4.51304 11.0932 4.51516C11.102 4.51563 11.1109 4.51587 11.1198 4.51587L12.3618 4.51587C13.7663 4.51587 15.0467 5.26077 15.7002 6.43796C16.1423 7.23445 16.2581 8.15932 16.0269 9.03196L16.0241 9.04227L13.2644 6.37476C13.1706 6.28073 13.0433 6.22789 12.9104 6.22789H10.8116C10.7052 6.22789 10.6015 6.26188 10.5157 6.32491L8.80804 7.57914C8.46659 7.82994 7.97002 7.76277 7.70747 7.43027C7.45336 7.10847 7.51426 6.65822 7.84473 6.41548ZM8.28651 15.0248L8.29613 15.0156L9.07446 14.2659L9.08392 14.2567C9.32358 14.0357 9.70391 14.0387 9.9397 14.2658C10.1787 14.496 10.1787 14.8693 9.9397 15.0995L9.16137 15.8492C8.92238 16.0794 8.53491 16.0794 8.29592 15.8492C8.06012 15.6221 8.05698 15.2557 8.28651 15.0248ZM8.36366 13.5629L8.35404 13.5721L7.57571 14.3218L7.56626 14.331C7.32661 14.552 6.94627 14.549 6.71047 14.3219C6.47386 14.094 6.47151 13.7259 6.70342 13.4951L6.71068 13.4882L7.48902 12.7385L7.49605 12.7316C7.73556 12.5083 8.11766 12.5106 8.35425 12.7385C8.59005 12.9657 8.59319 13.332 8.36366 13.5629ZM6.76859 12.0448L5.99026 12.7945L5.98323 12.8013C5.74372 13.0246 5.36161 13.0223 5.12502 12.7944C4.88604 12.5642 4.88604 12.191 5.12502 11.9608L5.90336 11.2111C6.14234 10.9809 6.52981 10.9809 6.7688 11.2111C7.00541 11.439 7.00776 11.8071 6.77585 12.0378L6.76859 12.0448ZM4.86304 10.8256L4.0847 11.5753C3.84572 11.8055 3.45825 11.8055 3.21926 11.5753C2.98028 11.3451 2.98028 10.9719 3.21926 10.7417L3.9976 9.99192C4.23658 9.76171 4.62405 9.76171 4.86304 9.99192C5.10202 10.2221 5.10202 10.5954 4.86304 10.8256Z" fill="#212121"/>
</svg>
