<svg width="30" height="30" viewBox="0 0 30 30" fill="none" xmlns="http://www.w3.org/2000/svg">
<path d="M24.8684 19.2022C24.7368 19.5969 24.4737 19.9259 23.9474 19.9259C23.8158 19.9259 23.75 19.9259 23.6184 19.9259C23.2895 21.1101 22.5 21.768 21.4474 21.768C20.5921 21.768 19.6053 21.2416 19.3421 19.9259C19.1447 19.9259 18.8816 19.9259 18.6842 19.9259C18.5526 20.518 18.2895 21.0443 17.7632 21.3732C17.3684 21.6364 16.9079 21.768 16.3816 21.768C15.3947 21.7022 14.6053 20.9785 14.3421 19.9259C13.2895 19.9259 12.3026 19.9259 11.1842 19.9259C11.0526 20.518 10.7895 21.0443 10.1974 21.439C9.80263 21.7022 9.3421 21.8338 8.88158 21.768C7.89474 21.7022 7.17105 21.0443 6.84211 19.9259C6.64474 19.9259 6.38158 19.9259 6.18421 19.9259C5.59211 19.9916 5.19737 19.7285 5 19.2022C5 17.8864 5 16.5706 5 15.2548C5.19737 14.5311 5.32895 13.8732 5.52632 13.1495C5.85526 12.3601 6.05263 11.5706 6.25 10.8469C6.38158 10.3864 6.71053 10.1232 7.23684 10.1232C8.09211 10.1232 8.88158 10.1232 9.73684 10.1232C10.3289 10.1232 10.7237 10.518 10.7237 11.1101C10.7237 12.7548 10.7237 14.3995 10.7237 16.0443C10.7237 16.1101 10.7237 16.1759 10.7237 16.3074C10.9211 16.3074 11.1184 16.3074 11.3158 16.3074C11.3158 14.1364 11.3158 12.0311 11.3158 9.86007C11.0526 9.86007 10.8553 9.86007 10.5921 9.86007C10.3289 9.86007 10.0658 9.86007 9.80263 9.86007C9.60526 9.86007 9.47368 9.72849 9.47368 9.53112C9.47368 9.26796 9.47368 8.93902 9.47368 8.67586C9.47368 8.34691 9.53947 8.21533 9.80263 8.21533C10.6579 8.21533 11.5789 8.21533 12.4342 8.21533C12.8289 8.21533 13.1579 8.47849 13.2895 8.93902C13.4211 9.39954 13.5526 9.86007 13.6184 10.3206C13.6842 10.5838 13.75 10.6495 14.0789 10.6495C16.25 10.6495 18.4868 10.6495 20.6579 10.6495C20.7237 10.6495 20.7895 10.6495 20.7895 10.6495C21.0526 10.6495 21.1842 10.7811 21.1842 10.9785C21.1842 11.1759 21.0526 11.3074 20.7895 11.3074C20.0658 11.3074 19.3421 11.3074 18.6184 11.3074C17.1053 11.3074 15.5921 11.3074 14.0789 11.3074C13.5526 11.3074 13.2237 11.0443 13.0921 10.518C12.9605 10.0574 12.8947 9.59691 12.7632 9.13638C12.6974 8.87323 12.6316 8.80744 12.3684 8.80744C11.7105 8.80744 10.9868 8.80744 10.3289 8.80744C10.2632 8.80744 10.1974 8.80744 10.1974 8.80744C10.1974 8.93902 10.1974 9.00481 10.1974 9.13638C10.3947 9.13638 10.6579 9.13638 10.8553 9.13638C11.1184 9.13638 11.3816 9.13638 11.6447 9.13638C11.9737 9.13638 12.0395 9.26796 12.0395 9.53112C12.0395 11.6364 12.0395 13.8074 12.0395 15.9127C12.0395 15.9785 12.0395 16.1101 12.0395 16.1759C16.1842 16.1759 20.2632 16.1759 24.3421 16.1759C24.3421 14.5311 24.3421 12.8864 24.3421 11.2416C24.2763 11.2416 24.2105 11.2416 24.1447 11.2416C23.5526 11.2416 22.8947 11.2416 22.3026 11.2416C22.0395 11.2416 21.9079 11.1101 21.9079 10.9127C21.9079 10.7153 22.0395 10.5838 22.3026 10.5838C23.0263 10.5838 23.8158 10.5838 24.5395 10.5838C24.7368 10.5838 24.8684 10.6495 25 10.7811C25 12.689 25 14.6627 25 16.5706C24.8684 16.8338 24.6053 16.768 24.4079 16.768C24.4079 16.9653 24.4079 17.1627 24.4079 17.3601C24.6053 17.3601 24.8684 17.2943 25 17.5574C24.8684 18.1495 24.8684 18.6759 24.8684 19.2022ZM6.97368 19.3338C7.17105 18.018 8.55263 17.0311 10.0658 17.689C10.0658 17.4259 10.0658 17.1627 10.0658 16.8995C10.0658 14.9916 10.0658 13.018 10.0658 11.1101C10.0658 10.8469 9.93421 10.7153 9.73684 10.7153C8.88158 10.7153 8.02632 10.7153 7.17105 10.7153C7.03947 10.7153 6.90789 10.7811 6.84211 10.9127C6.84211 11.0443 6.77632 11.1759 6.77632 11.3074C7.36842 11.3074 7.96053 11.3074 8.55263 11.3074C9.07895 11.3074 9.47368 11.7022 9.47368 12.2285C9.47368 12.4916 9.47368 12.8206 9.47368 13.0838C9.47368 13.8074 8.94737 14.3995 8.28947 14.5311C7.76316 14.6627 7.23684 14.7285 6.77632 14.7943C6.57895 14.8601 6.38158 14.7285 6.38158 14.5311C6.31579 14.3995 6.44737 14.2022 6.71053 14.2022C7.10526 14.1364 7.56579 14.0706 8.02632 13.939C8.55263 13.8732 8.81579 13.4785 8.81579 13.018C8.81579 12.7548 8.81579 12.5574 8.81579 12.2943C8.81579 12.0311 8.68421 11.8995 8.42105 11.8995C8.15789 11.8995 7.89474 11.8995 7.56579 11.8995C7.23684 11.8995 6.90789 11.8995 6.57895 11.8995C6.44737 12.689 6.25 13.4127 6.05263 14.1364C5.92105 14.5311 5.78947 14.9916 5.78947 15.3864C5.72368 16.5706 5.78947 17.7548 5.78947 18.939C5.78947 19.1364 5.92105 19.268 6.11842 19.268C6.38158 19.3338 6.64474 19.3338 6.97368 19.3338ZM23.6184 17.4916C23.6184 17.2943 23.6184 17.0969 23.6184 16.8995C19.2763 16.8995 15 16.8995 10.6579 16.8995C10.6579 17.0969 10.6579 17.2943 10.6579 17.4916C15 17.4916 19.3421 17.4916 23.6184 17.4916ZM9.14474 18.0838C8.28947 18.0838 7.56579 18.7416 7.56579 19.5969C7.56579 20.4522 8.22368 21.1101 9.07895 21.1101C9.93421 21.1101 10.6579 20.4522 10.6579 19.5311C10.6579 18.8074 10 18.0838 9.14474 18.0838ZM18.0921 19.6627C18.0921 18.8074 17.4342 18.1495 16.5789 18.0838C15.7237 18.0838 15 18.7416 15 19.5969C15 20.4522 15.6579 21.1759 16.5132 21.1759C17.3684 21.1759 18.0921 20.518 18.0921 19.6627ZM19.9342 19.5969C19.9342 20.4522 20.5921 21.1101 21.4474 21.1759C22.3026 21.1759 23.0263 20.518 23.0263 19.6627C23.0263 18.8074 22.3684 18.1495 21.5132 18.1495C20.6579 18.0838 19.9342 18.7416 19.9342 19.5969ZM15 18.0838C13.5526 18.0838 12.1053 18.0838 10.6579 18.0838C10.9868 18.4127 11.1842 18.8074 11.25 19.268C12.3026 19.268 13.3553 19.268 14.4079 19.268C14.4737 18.8732 14.6711 18.4785 15 18.0838ZM18.0921 18.0838C18.4211 18.4127 18.6184 18.8732 18.6842 19.268C18.9474 19.268 19.1447 19.268 19.3421 19.268C19.4079 18.8074 19.6053 18.4127 19.9342 18.0838C19.3421 18.0838 18.6842 18.0838 18.0921 18.0838ZM24.2763 18.0838C23.8816 18.0838 23.4868 18.0838 23.0263 18.0838C23.3553 18.4127 23.5526 18.8732 23.6184 19.3338C23.75 19.3338 23.8158 19.3338 23.9474 19.3338C24.1447 19.3338 24.2763 19.2022 24.2763 19.0048C24.2763 18.6759 24.2763 18.4127 24.2763 18.0838Z" fill="#212121"/>
<path d="M8.81561 15.6496C8.68403 15.6496 8.61824 15.6496 8.48666 15.6496C8.28929 15.6496 8.15771 15.518 8.15771 15.3206C8.15771 15.1233 8.28929 14.9917 8.48666 14.9917C8.68403 14.9917 8.8814 14.9917 9.07877 14.9917C9.27614 14.9917 9.40771 15.1233 9.40771 15.3206C9.40771 15.518 9.27614 15.6496 9.07877 15.6496C9.01298 15.6496 8.94719 15.6496 8.81561 15.6496Z" fill="#212121"/>
<path d="M10.0657 19.5968C10.0657 20.1231 9.671 20.5179 9.14469 20.5179C8.61837 20.5179 8.22363 20.1231 8.22363 19.5968C8.22363 19.0705 8.61837 18.6758 9.14469 18.6758C9.671 18.6758 10.0657 19.1363 10.0657 19.5968ZM9.14469 19.3337C8.94732 19.3337 8.81574 19.4653 8.81574 19.6626C8.81574 19.86 8.94732 19.9916 9.14469 19.9916C9.34205 19.9916 9.47363 19.86 9.47363 19.6626C9.47363 19.4653 9.27626 19.3337 9.14469 19.3337Z" fill="#212121"/>
<path d="M17.4344 19.5968C17.4344 20.1231 17.0397 20.5179 16.5133 20.5179C15.987 20.5179 15.5923 20.1231 15.5923 19.5968C15.5923 19.0705 15.987 18.6758 16.5133 18.6758C17.0397 18.6758 17.4344 19.1363 17.4344 19.5968ZM16.5133 19.9258C16.7107 19.9258 16.8423 19.7942 16.8423 19.5968C16.8423 19.3995 16.7107 19.2679 16.5133 19.2679C16.316 19.2679 16.1844 19.3995 16.1844 19.5968C16.2502 19.7942 16.3818 19.9258 16.5133 19.9258Z" fill="#212121"/>
<path d="M21.4474 20.5838C20.9211 20.5838 20.5264 20.1891 20.5264 19.6628C20.5264 19.1364 20.9211 18.7417 21.4474 18.7417C21.9737 18.7417 22.3685 19.1364 22.3685 19.6628C22.4343 20.1233 21.9737 20.5838 21.4474 20.5838ZM21.4474 19.3338C21.2501 19.3338 21.1185 19.4654 21.1185 19.6628C21.1185 19.8601 21.2501 19.9917 21.4474 19.9917C21.6448 19.9917 21.7764 19.8601 21.7764 19.6628C21.7764 19.4654 21.6448 19.3338 21.4474 19.3338Z" fill="#212121"/>
</svg>
