<svg width="30" height="30" viewBox="0 0 30 30" fill="none" xmlns="http://www.w3.org/2000/svg">
<path d="M18.4213 18.3982C18.2214 18.6647 17.9549 18.6647 17.6217 18.6647C16.2891 18.6647 14.9565 18.6647 13.6239 18.6647C13.1575 18.6647 12.891 18.4648 12.6911 18.065C12.6245 17.8651 12.4912 17.7985 12.3579 17.7319C12.158 17.6652 12.0248 17.532 11.8249 17.4653C11.8249 17.5986 11.7583 17.6652 11.7583 17.7985C11.4251 19.3976 9.95925 20.5303 8.36013 20.5303C6.62775 20.4637 5.29514 19.2644 5.02862 17.5986C4.82873 15.9328 5.69493 14.467 7.02753 13.8673C8.42676 13.2676 10.0259 13.6008 11.0253 14.8001C11.092 14.9334 11.2252 15 11.3585 15.0667C12.0248 15.4664 12.6911 15.7996 13.2908 16.1994C13.4906 16.3326 13.8238 16.0661 13.8238 15.8662C13.8904 15.5997 13.8904 15.3332 13.9571 15C13.8904 14.8668 13.7572 14.8001 13.5573 14.8001C12.8243 14.7335 12.158 14.6002 11.4251 14.467C11.3585 14.467 11.2252 14.4004 11.1586 14.3337C9.6261 12.8679 8.02698 11.402 6.36123 9.93614L6.2946 9.86951C6.22797 9.80288 6.16134 9.66962 6.22797 9.60299C6.2946 9.53636 6.42786 9.46973 6.56112 9.46973C7.09416 9.53636 7.69383 9.66962 8.22687 9.73625C8.89317 9.86951 9.6261 9.93614 10.2924 10.0694C10.5589 10.136 10.6256 10.2027 10.6256 10.4692C10.6256 10.8023 10.6256 11.1355 10.6256 11.4686C10.6256 11.6019 10.6256 11.6019 10.7588 11.6685C11.2252 11.8018 11.6916 11.935 12.158 12.0683C12.2247 12.0683 12.3579 12.0683 12.4246 12.0683C13.6239 11.402 14.9565 10.9356 16.3557 10.869C16.7555 10.869 17.1553 10.869 17.4885 10.9356C18.288 11.1355 18.6878 11.5353 18.9543 12.2682C19.2875 12.2682 19.6206 12.2682 20.0204 12.2682C20.3535 12.2682 20.4868 12.0017 20.4202 11.7351C20.3535 11.4686 20.2203 11.2021 20.1537 11.0022C20.1537 10.9356 20.087 10.9356 20.0204 10.9356C19.8205 10.9356 19.6872 10.9356 19.4874 10.9356C19.3541 10.9356 19.2875 10.869 19.2208 10.7357C19.2208 10.6024 19.2875 10.5358 19.4874 10.5358C19.6206 10.5358 19.7539 10.5358 19.9538 10.5358C19.8871 10.4025 19.8871 10.2693 19.8205 10.136C19.7539 9.93614 19.8205 9.80288 20.0204 9.80288C20.2203 9.80288 20.4202 9.80288 20.6201 9.80288C20.9532 9.80288 21.1531 10.0028 21.2864 10.2693C21.8194 11.1355 22.2858 12.0017 22.8189 12.8679C23.0187 13.1344 23.0187 13.3343 22.619 13.7341C23.4185 14.0006 24.0182 14.467 24.4846 15.1999C24.951 15.9328 25.0843 16.6658 24.951 17.532C24.7511 18.9978 23.6184 20.1305 22.2192 20.3971C20.82 20.597 19.2208 19.9307 18.4213 18.3982ZM10.1591 16.3993C10.0925 16.1994 10.0925 16.0661 10.2258 15.8662C10.359 15.5997 10.4923 15.2665 10.6922 15C10.6922 14.9334 10.6256 14.9334 10.6256 14.9334C9.75936 14.0006 8.36013 13.7341 7.22742 14.2671C6.02808 14.8001 5.36177 16.0661 5.49503 17.3321C5.6283 18.8646 6.9609 19.9973 8.49339 19.9973C10.0259 19.9973 11.2919 18.7979 11.4251 17.3321C11.4251 17.1988 11.4251 17.1322 11.2919 17.0656C10.8921 16.8657 10.4923 16.5991 10.1591 16.3993ZM14.0237 16.4659C13.7572 16.6658 13.5573 16.8657 13.2908 16.9989C12.891 17.3321 12.891 17.3321 13.0242 17.7985C13.0242 17.8651 13.0909 17.9984 13.1575 18.065C13.2241 18.1316 13.3574 18.1983 13.4906 18.1983C14.8899 18.1983 16.3557 18.1983 17.755 18.1983C18.0215 18.1983 18.2214 17.9317 18.1548 17.6652C18.1548 17.2654 18.0881 16.799 18.1548 16.3993C18.4213 14.6669 19.8205 13.5342 21.6195 13.5342C21.6861 13.5342 21.8194 13.4675 21.886 13.4675V13.4009H21.8194C21.2197 12.8679 21.0198 12.1349 21.2864 11.2687C21.2864 11.2021 21.2864 11.1355 21.2864 11.0688C21.1531 10.869 21.0198 10.6691 20.9532 10.4025C20.82 10.136 20.6201 10.0694 20.2869 10.136C20.3535 10.2693 20.3535 10.4025 20.4202 10.4692C20.5534 10.8023 20.6867 11.2021 20.82 11.5353C21.0198 12.1349 20.6867 12.6013 20.1537 12.668C20.087 12.668 19.9538 12.668 19.8871 12.668C18.4879 12.668 17.0887 12.668 15.7561 12.668C15.6894 12.668 15.6228 12.668 15.5562 12.668C15.223 12.8679 14.8899 13.0011 14.5567 13.201C14.6234 13.2676 14.69 13.3343 14.7566 13.3343C15.2897 13.7341 15.8227 14.2005 16.3557 14.6002C16.8888 15.0667 17.022 15.7996 16.7555 16.3993C16.3557 17.1322 15.6894 17.3987 15.0231 17.2654C14.5567 17.1322 14.2902 16.8657 14.0237 16.4659ZM20.2869 14.3337C19.0876 14.8668 18.1548 16.3993 18.8211 18.065C19.4207 19.5975 21.2197 20.3971 22.7522 19.6641C24.2847 18.9978 24.951 17.1988 24.2847 15.6663C23.5518 14.0672 21.7528 13.6674 20.6867 14.1338C20.82 14.5336 20.9532 14.8668 21.1531 15.1999C22.4191 15.1999 23.0854 15.5997 23.2853 16.5325C23.4852 17.3321 23.0187 18.1983 22.2858 18.5314C21.4863 18.8646 20.6201 18.5981 20.1537 17.8651C19.8871 17.532 19.8205 17.1322 19.8871 16.6658C19.9538 16.0661 20.2869 15.6663 20.7533 15.3332C20.5534 15.0667 20.4202 14.7335 20.2869 14.3337ZM15.0898 14.4004C14.4901 13.9339 13.8238 13.4009 13.2241 12.9345C13.1575 12.8679 13.0909 12.8679 13.0242 12.8679C12.158 12.6013 11.2919 12.3348 10.359 12.0683C10.1591 11.935 10.1591 11.935 10.1591 11.6685C10.1591 11.2687 10.1591 10.9356 10.1591 10.5358C9.15969 10.3359 8.16024 10.2027 7.22742 10.0694C7.22742 10.0694 7.22742 10.136 7.16079 10.136C7.16079 10.136 7.22742 10.136 7.22742 10.2027C8.62665 11.4686 10.0259 12.7346 11.4251 14.0006C11.5584 14.0006 11.625 14.0672 11.6916 14.0672C12.158 14.1338 12.5578 14.2005 13.0242 14.2671C13.4906 14.4004 14.0903 14.2671 14.4235 14.7335C14.6234 14.6002 14.8899 14.467 15.0898 14.4004ZM12.891 12.2016V12.2682C13.3574 12.3348 13.6905 12.6013 14.0237 12.8679C14.0903 12.9345 14.1569 12.9345 14.2236 12.8679C14.5567 12.668 14.8899 12.4681 15.223 12.3348C15.3563 12.2682 15.4895 12.2016 15.6228 12.2016C16.489 12.2016 17.3552 12.2016 18.288 12.2016C18.3546 12.2016 18.4213 12.2016 18.5545 12.2016C18.4213 11.8684 18.288 11.6685 18.0215 11.5353C17.6217 11.2687 17.2219 11.2021 16.8222 11.2021C15.8227 11.2021 14.8899 11.402 14.0237 11.7351C13.5573 11.935 13.2241 12.0683 12.891 12.2016ZM21.4863 16.1327C21.5529 16.1327 21.6195 16.1327 21.6195 16.1327C22.0193 16.1327 22.3524 16.4659 22.4191 16.799C22.4857 17.1988 22.2858 17.5986 21.9527 17.7319C21.6195 17.8651 21.1531 17.7985 20.9532 17.4653C20.6867 17.1322 20.6867 16.7324 20.9532 16.3993C21.0865 16.1994 21.0865 16.0661 20.9532 15.8662C20.3535 16.266 20.2203 16.9323 20.5534 17.532C20.8866 18.1316 21.5529 18.3982 22.2192 18.1316C22.8189 17.8651 23.152 17.1988 22.9521 16.5325C22.7522 15.8662 22.0859 15.5331 21.4196 15.6663C21.353 15.8662 21.4196 15.9995 21.4863 16.1327ZM16.3557 15.8662C16.3557 15.3332 15.956 14.8668 15.3563 14.8668C14.8232 14.8668 14.3568 15.3332 14.3568 15.8662C14.3568 16.3993 14.8232 16.8657 15.3563 16.8657C15.8893 16.8657 16.3557 16.3993 16.3557 15.8662ZM10.5589 16.1327C11.2252 16.4659 11.8249 16.8657 12.3579 17.1988C12.6245 16.9989 12.8243 16.799 13.0909 16.5991C12.4246 16.1327 11.6916 15.733 11.0253 15.3332C10.8254 15.5997 10.6922 15.8662 10.5589 16.1327ZM21.6861 11.7351C21.4863 12.3348 22.0193 13.0678 22.5523 13.1344C22.2192 12.668 21.9527 12.2016 21.6861 11.7351ZM21.2864 16.799C21.1531 17.0656 21.2197 17.2654 21.4196 17.3987C21.6195 17.532 21.886 17.3987 21.9527 17.1988C22.0193 16.9989 21.9527 16.799 21.6861 16.6658C21.7528 16.799 21.7528 16.8657 21.8194 16.9323C21.886 17.0656 21.8194 17.1988 21.6861 17.1988C21.5529 17.2654 21.4196 17.1988 21.4196 17.0656C21.353 16.9989 21.2864 16.8657 21.2864 16.799Z" fill="#212121"/>
<path d="M10.1591 16.3993C10.1591 16.5992 10.2257 16.7991 10.2257 16.9324C10.2257 17.8652 9.55941 18.6648 8.62659 18.7314C7.69377 18.798 6.89421 18.1984 6.69432 17.2655C6.56106 16.3993 7.16073 15.5332 8.02692 15.3333C8.82648 15.1334 9.62604 15.5332 10.0258 16.2661C10.0258 16.2661 10.0925 16.3327 10.1591 16.3993ZM8.4267 15.6664C7.69377 15.6664 7.0941 16.2661 7.0941 16.9324C7.0941 17.6653 7.69377 18.265 8.36007 18.265C9.093 18.265 9.69267 17.6653 9.69267 16.999C9.7593 16.2661 9.15963 15.6664 8.4267 15.6664Z" fill="#212121"/>
<path d="M9.29293 16.999C9.29293 17.4654 8.89315 17.8652 8.42674 17.8652C7.96033 17.8652 7.56055 17.4654 7.56055 16.999C7.56055 16.5326 7.96033 16.1328 8.42674 16.1328C8.89315 16.1328 9.29293 16.466 9.29293 16.999ZM8.82652 16.999C8.82652 16.7991 8.62663 16.5992 8.42674 16.5992C8.22685 16.5992 8.02696 16.7991 8.02696 16.999C8.02696 17.1989 8.22685 17.3988 8.42674 17.3988C8.69326 17.3988 8.82652 17.1989 8.82652 16.999Z" fill="#212121"/>
</svg>
