<svg width="30" height="30" viewBox="0 0 30 30" fill="none" xmlns="http://www.w3.org/2000/svg">
<path d="M14.3954 5C14.7956 5 15.2625 5 15.6626 5C15.7293 5 15.7293 5 15.796 5C16.3296 5.06689 16.8631 5.13378 17.33 5.26756C21.1984 6.13712 24.1997 9.41472 24.8666 13.2943C24.9333 13.6288 25 14.0301 25 14.3645C25 14.7659 25 15.2341 25 15.6355C25 15.7023 25 15.7692 25 15.7692C24.9333 16.2375 24.8666 16.7057 24.7999 17.1739C23.9996 21.0535 20.6648 24.2642 16.7964 24.8662C16.3963 24.9331 16.0628 25 15.6626 25C15.2625 25 14.7956 25 14.3954 25C14.3287 25 14.262 25 14.1953 24.9331C12.8614 24.7993 11.5942 24.4649 10.4604 23.8629C6.45864 21.7893 4.32438 17.4415 5.19142 12.9599C5.92508 8.94649 9.25985 5.6689 13.2616 5.06689C13.5951 5.06689 13.9952 5.06689 14.3954 5ZM9.25985 22.4582C9.39324 22.2575 9.52663 22.0569 9.72672 21.8562C9.86011 21.6555 10.0602 21.5886 10.1936 21.7224C10.327 21.8562 10.327 21.99 10.1936 22.1906C10.0602 22.3913 9.86011 22.592 9.72672 22.8595C10.3937 23.3278 11.0606 23.6622 11.861 23.9298C11.9277 23.6622 12.0611 23.3946 12.1278 23.1271C12.1945 22.9264 12.3278 22.8595 12.5279 22.9264C12.6613 22.9933 12.7947 23.1271 12.728 23.3278C12.6613 23.5953 12.5279 23.8629 12.4612 24.1304C13.2616 24.3311 13.9952 24.4649 14.7956 24.4649C14.7956 24.398 14.7956 24.3311 14.7956 24.2642C14.7956 23.9967 14.7956 23.796 14.7956 23.5284C14.7956 23.3278 14.929 23.2609 15.0624 23.2609C15.1958 23.2609 15.3291 23.3946 15.3291 23.5284C15.3291 23.6622 15.3291 23.7291 15.3291 23.8629C15.3291 24.0635 15.3291 24.2642 15.3291 24.4649C15.9294 24.4649 17.2633 24.2642 17.6635 24.0635C17.5968 23.796 17.5301 23.5953 17.3967 23.3278C17.33 23.1271 17.3967 22.9264 17.5968 22.8595C17.7969 22.7926 17.9303 22.9264 17.997 23.1271C18.0637 23.3946 18.1304 23.5953 18.2637 23.8629C18.9974 23.5953 19.7311 23.2609 20.398 22.7926C20.2646 22.592 20.0645 22.3913 19.9311 22.1237C19.7977 21.9231 19.7977 21.7893 19.9311 21.6555C20.0645 21.5217 20.2646 21.5886 20.398 21.7893C20.5314 21.99 20.7315 22.1906 20.8649 22.4582C21.4651 21.99 22.0654 21.388 22.5323 20.786C22.3322 20.6522 22.1321 20.4515 21.932 20.3177C21.7319 20.1839 21.6652 19.9833 21.7986 19.8495C21.932 19.7157 22.0654 19.7157 22.2655 19.8495C22.4656 19.9833 22.6657 20.1839 22.9324 20.3177C23.3993 19.6488 23.7328 18.9799 23.9996 18.1773C23.7328 18.1104 23.466 18.0435 23.2659 17.9097C23.1992 17.9097 23.1325 17.8428 23.0658 17.7759C22.9991 17.6421 22.9991 17.5753 23.0658 17.4415C23.1325 17.3077 23.2659 17.3077 23.3993 17.3077C23.6661 17.3746 23.9329 17.5084 24.1997 17.5753C24.3997 16.7726 24.5331 16.0368 24.5331 15.2341C24.2663 15.2341 23.9996 15.2341 23.7328 15.2341C23.466 15.2341 23.3326 15.1003 23.3326 14.8997C23.3326 14.699 23.466 14.6321 23.7328 14.6321C23.9996 14.6321 24.2663 14.6321 24.5331 14.6321C24.4664 13.8294 24.3997 13.0268 24.133 12.291C23.8662 12.3579 23.5994 12.4247 23.3993 12.5585C23.1992 12.6254 22.9991 12.5585 22.9324 12.3579C22.8657 12.1572 22.9991 12.0234 23.1992 11.9565C23.466 11.8896 23.6661 11.8227 23.9329 11.689C23.6661 10.9532 23.3326 10.2174 22.8657 9.5485C22.6657 9.68227 22.4656 9.88294 22.1988 10.0167C21.932 10.3512 21.7986 10.3512 21.6652 10.1505C21.5318 10.0167 21.5985 9.81605 21.7986 9.68227C21.9987 9.54849 22.1988 9.34783 22.4656 9.21405C21.9987 8.61204 21.3984 8.01003 20.7982 7.54181C20.6648 7.74247 20.5314 7.94314 20.398 8.07692C20.1979 8.34448 20.0645 8.41137 19.8644 8.27759C19.6644 8.14381 19.7311 8.01003 19.8644 7.74247C19.9978 7.54181 20.1312 7.34114 20.2646 7.14047C19.5977 6.67224 18.9307 6.33779 18.1304 6.07023C18.0637 6.33779 17.9303 6.60535 17.8636 6.80602C17.7969 7.00669 17.6635 7.14047 17.4634 7.07358C17.2633 7.00669 17.1966 6.87291 17.2633 6.67224C17.33 6.40468 17.3967 6.13712 17.5301 5.93645C16.7298 5.73579 15.9961 5.60201 15.1958 5.60201C15.1958 5.6689 15.1958 5.73579 15.1958 5.86957C15.1958 6.07023 15.1958 6.2709 15.1958 6.47157C15.1958 6.67224 15.0624 6.80602 14.929 6.80602C14.7289 6.80602 14.6622 6.67224 14.6622 6.47157C14.6622 6.33779 14.6622 6.20401 14.6622 6.07023C14.6622 5.93645 14.6622 5.80268 14.6622 5.6689C13.8618 5.73579 13.0615 5.80268 12.3278 6.07023C12.3945 6.33779 12.4612 6.60535 12.5946 6.80602C12.6613 7.00669 12.5946 7.20736 12.3945 7.27425C12.1945 7.34114 12.0611 7.20736 11.9944 7.00669C11.9277 6.73913 11.861 6.53846 11.7276 6.2709C11.0606 6.40468 10.327 6.80602 9.72672 7.20736C9.86011 7.40803 10.0602 7.6087 10.1936 7.87625C10.2603 7.94314 10.327 8.07692 10.2603 8.14381C10.1936 8.27759 10.1269 8.34448 10.0602 8.34448C9.92681 8.41137 9.79342 8.34448 9.72672 8.27759C9.52663 8.07692 9.39324 7.80936 9.19316 7.6087C8.5262 8.07692 7.99264 8.67893 7.52577 9.28094C7.79255 9.41472 7.99264 9.54849 8.19272 9.68227C8.39281 9.88294 8.45951 10.0167 8.32611 10.1505C8.19272 10.3512 8.05933 10.3512 7.85925 10.2174C7.65916 10.0167 7.39238 9.88294 7.19229 9.74916C6.72542 10.4181 6.39194 11.087 6.12516 11.8896C6.19186 11.8896 6.25855 11.9565 6.32525 11.9565C6.52533 12.0234 6.72542 12.0903 6.92551 12.1572C7.0589 12.2241 7.12559 12.3579 7.12559 12.4916C7.0589 12.6254 6.92551 12.6923 6.79212 12.6923C6.72542 12.6923 6.65873 12.6254 6.59203 12.6254C6.39194 12.5585 6.19186 12.4916 5.92508 12.4247C5.72499 13.2274 5.5916 13.9632 5.5249 14.7659C5.65829 14.7659 5.72499 14.7659 5.79168 14.7659C5.99177 14.7659 6.19186 14.7659 6.39194 14.7659C6.59203 14.7659 6.65873 14.8997 6.65873 15.0334C6.65873 15.1672 6.59203 15.301 6.39194 15.3679C6.25855 15.3679 6.05847 15.3679 5.92508 15.3679C5.79168 15.3679 5.65829 15.3679 5.5249 15.3679C5.5249 15.9699 5.72499 17.2408 5.92508 17.709C6.19186 17.6421 6.45864 17.5084 6.72542 17.4415C6.92551 17.3746 7.0589 17.4415 7.12559 17.6421C7.19229 17.7759 7.12559 17.9766 6.92551 18.0435C6.65873 18.1104 6.39194 18.2441 6.12516 18.311C6.39194 19.0468 6.72542 19.7826 7.19229 20.4515C7.39238 20.3177 7.65916 20.1171 7.85925 19.9833C7.92594 19.9164 8.05933 19.8495 8.12603 19.9164C8.19272 19.8495 8.32611 19.9164 8.32611 19.9833C8.32611 20.0502 8.25942 20.2508 8.19272 20.3177C7.99264 20.5184 7.72585 20.6522 7.52577 20.786C7.85925 21.3211 8.79298 22.2575 9.25985 22.4582Z" fill="#212121"/>
<path d="M14.9957 7.94306C18.4639 7.94306 21.4652 10.4849 21.9987 13.8962C22.599 17.7089 19.9979 21.321 16.2629 21.9899C12.4613 22.6588 8.79302 20.1839 8.12606 16.3712C7.5925 13.7625 8.39284 11.5551 10.327 9.74908C10.4604 9.6153 10.6605 9.6153 10.7939 9.74908C10.9273 9.88286 10.9273 10.0835 10.7272 10.2173C9.92684 10.9531 9.25989 11.8895 8.92641 12.8929C7.72589 16.2374 9.52667 20.0501 12.8614 21.1872C16.5964 22.4581 20.5314 20.2508 21.3985 16.3712C22.1321 12.8929 19.7311 9.28085 16.2629 8.67884C14.6622 8.41129 13.1949 8.67884 11.7943 9.48152C11.6609 9.54841 11.5275 9.6153 11.3941 9.48152C11.1274 9.28085 11.1941 9.08018 11.3941 8.9464C11.9944 8.61196 12.6614 8.27751 13.3283 8.14373C13.8619 8.00995 14.3954 7.94306 14.9957 7.94306Z" fill="#212121"/>
<path d="M14.996 20.9198C14.0622 20.9198 13.1952 20.7191 12.3948 20.3178C12.1281 20.184 12.1281 20.0502 12.2614 19.7827C12.5949 19.2475 12.9951 18.7793 13.3953 18.2442C14.1956 17.1071 15.863 17.1071 16.6634 18.2442C17.0635 18.7124 17.397 19.2475 17.7972 19.7827C17.9306 19.9833 17.9306 20.184 17.6638 20.3178C16.7967 20.7191 15.9297 20.9198 14.996 20.9198ZM17.0635 19.9164C16.73 19.4482 16.4633 19.0469 16.1298 18.5786C15.5295 17.8429 14.4624 17.8429 13.8621 18.5786C13.5954 18.98 13.2619 19.3813 12.9951 19.7158C12.9951 19.7827 12.9284 19.7827 12.9284 19.8496C14.329 20.5184 15.6629 20.5184 17.0635 19.9164Z" fill="#212121"/>
<path d="M9.05957 14.9665C9.05957 14.699 9.12627 14.4314 9.12627 14.097C9.12627 13.8963 9.32635 13.7625 9.52644 13.8294C10.1267 14.0301 10.7937 14.2307 11.3939 14.4314C12.5944 14.8996 13.128 16.3712 12.3943 17.4415C12.0609 17.9766 11.594 18.5117 11.2605 19.0468C11.1271 19.2475 10.927 19.2475 10.7937 19.0468C9.85992 18.2441 9.25966 17.0401 9.12627 15.7023C9.12627 15.5017 9.12627 15.2341 9.05957 14.9665ZM10.9937 18.5117C11.3272 18.0435 11.6607 17.5752 11.9942 17.107C12.3943 16.4381 12.1943 15.4348 11.4606 15.1003C10.927 14.8328 10.3268 14.699 9.72653 14.4983C9.52644 15.7023 9.92661 17.4415 10.9937 18.5117Z" fill="#212121"/>
<path d="M20.9317 14.9664C20.9317 16.6387 20.3981 17.9765 19.2643 19.1136C18.9975 19.3811 18.8641 19.3811 18.6641 19.0467C18.3306 18.5785 17.9971 18.1102 17.6636 17.642C16.7966 16.438 17.3301 14.8995 18.7307 14.4313C19.2643 14.2306 19.7979 14.0969 20.3981 13.8962C20.6649 13.8293 20.7983 13.8962 20.865 14.1638C20.865 14.2306 20.865 14.2975 20.865 14.2975C20.865 14.5651 20.865 14.8327 20.9317 14.9664ZM18.9975 18.5116C19.8646 17.7089 20.6649 15.3678 20.2647 14.4982C19.7312 14.6989 19.1976 14.8327 18.7307 15.0333C17.9304 15.3678 17.5969 16.3042 17.9971 17.04C18.2639 17.5751 18.5974 18.0434 18.9975 18.5116Z" fill="#212121"/>
<path d="M15.5962 10.5519C15.5962 10.2174 15.5962 9.88296 15.5962 9.54852C15.5962 9.28096 15.7296 9.14718 15.9964 9.21407C17.9305 9.54852 19.3311 10.6187 20.2649 12.3579C20.3983 12.5585 20.3316 12.7592 20.0648 12.8261C19.4645 13.0268 18.8643 13.2274 18.1973 13.4281C16.8634 13.8295 15.5962 12.8261 15.5962 11.4883C15.5962 11.087 15.5962 10.8194 15.5962 10.5519ZM16.1965 9.81607C16.1965 10.4181 16.1298 11.0201 16.1965 11.5552C16.2631 12.4248 17.0635 12.9599 17.8638 12.8261C18.4641 12.6923 18.9977 12.4917 19.5979 12.291C18.7309 11.0201 17.6638 10.2174 16.1965 9.81607Z" fill="#212121"/>
<path d="M14.3951 10.5519C14.3951 10.9532 14.4618 11.3545 14.3951 11.7559C14.195 12.9599 12.9945 13.7626 11.8606 13.4281C11.2604 13.2275 10.5934 13.0268 9.99316 12.8261C9.79308 12.7592 9.72638 12.5586 9.79308 12.3579C10.7268 10.6188 12.1274 9.61541 14.0616 9.28096C14.3284 9.21407 14.4618 9.34785 14.4618 9.61541C14.3951 9.88297 14.3951 10.2174 14.3951 10.5519ZM13.7948 9.81608C12.3275 10.2174 11.1937 11.0201 10.3933 12.291C10.9269 12.4917 11.4605 12.6254 11.9273 12.7592C12.7277 12.9599 13.5947 12.4917 13.7281 11.6221C13.8615 11.087 13.7948 10.485 13.7948 9.81608Z" fill="#212121"/>
<path d="M14.9954 13.8293C15.6624 13.8293 16.1959 14.3645 16.1959 15.0334C16.1959 15.7023 15.6624 16.2374 14.9954 16.2374C14.3285 16.2374 13.8616 15.7023 13.8616 15.0334C13.7949 14.3645 14.3285 13.8293 14.9954 13.8293ZM15.5957 15.0334C15.5957 14.6989 15.3289 14.4314 14.9954 14.4314C14.6619 14.4314 14.3952 14.6989 14.3952 15.0334C14.3952 15.3678 14.6619 15.6354 14.9954 15.6354C15.3289 15.6354 15.5957 15.3678 15.5957 15.0334Z" fill="#212121"/>
</svg>
