<svg width="30" height="30" viewBox="0 0 30 30" fill="none" xmlns="http://www.w3.org/2000/svg">
<path d="M8.55813 24.9516C8.29187 24.885 7.95904 24.8184 7.69277 24.7519C6.16175 24.1528 5.29639 23.0877 5.03012 21.4236C4.76386 19.36 6.29488 17.2964 8.35843 17.0302C8.75783 16.9636 9.22379 16.9636 9.62319 17.0302C9.68976 17.0302 9.82289 17.0302 9.88946 16.9636C12.2193 14.6338 14.6157 12.2374 16.9455 9.90759C17.012 9.84103 17.012 9.70789 17.012 9.64133C16.6792 7.44464 18.0771 5.44765 20.3404 5.04826C20.4069 5.04826 20.5401 5.04826 20.6066 4.98169C20.8729 4.98169 21.0726 4.98169 21.3389 4.98169C21.472 4.98169 21.6717 5.04826 21.8048 5.04826C21.938 5.04826 22.1376 5.11482 22.1376 5.31452C22.2042 5.51422 22.0711 5.64735 22.0045 5.71392C21.4054 6.37958 20.8063 6.97868 20.1407 7.64434C20.0741 7.71091 20.0075 7.77747 20.0741 7.91061C20.2072 8.37657 20.4069 8.84253 20.5401 9.24193C20.5401 9.3085 20.6732 9.37506 20.7398 9.44163C21.2057 9.57476 21.6051 9.70789 22.0711 9.90759C22.2042 9.97416 22.2708 9.90759 22.4039 9.84103C23.003 9.24193 23.6021 8.57627 24.2678 7.97717C24.4009 7.84404 24.534 7.77747 24.6672 7.77747C24.8669 7.84404 24.8669 7.97717 24.9334 8.17687C24.9334 8.24344 25 8.37657 25 8.44314C25 8.84253 25 9.17536 25 9.57476C25 9.64133 25 9.64133 24.9334 9.70789C24.6006 11.838 22.4705 13.3025 20.4069 12.9696C20.2738 12.9696 20.2072 12.9696 20.1407 13.0362C19.6081 13.5687 19.1422 14.0347 18.6096 14.5672C18.5431 14.6338 18.5431 14.6338 18.4765 14.7004C18.6762 14.9001 18.8759 15.0998 19.1422 15.2995C19.4084 15.5657 19.4084 15.6989 19.1422 16.0317C18.9425 16.2314 18.9425 16.4311 19.0756 16.6308C19.2087 16.8305 19.475 16.7639 19.6747 16.5642C19.941 16.298 20.0741 16.298 20.3404 16.5642C21.6051 17.829 22.8699 19.0937 24.1346 20.3585C24.2678 20.4916 24.3343 20.6248 24.4675 20.7579C24.7337 21.0907 24.8669 21.4901 25 21.823C25 22.1558 25 22.5552 25 22.888C25 22.9546 24.9334 22.9546 24.9334 23.0211C24.7337 23.6868 24.4009 24.2193 23.8684 24.5522C23.5355 24.8184 23.1361 24.885 22.8033 25.0181C22.537 25.0181 22.2042 25.0181 21.938 25.0181C21.1392 24.885 20.5401 24.3525 20.0075 23.7534C18.8759 22.6218 17.7443 21.4901 16.6126 20.3585C16.5461 20.2919 16.5461 20.2919 16.4795 20.2254C16.3464 20.0922 16.3464 19.8925 16.4795 19.7594C16.5461 19.6928 16.6126 19.6263 16.6792 19.4931C16.7458 19.36 16.7458 19.1603 16.6126 19.0937C16.4795 18.9606 16.3464 18.9606 16.1467 19.0272C16.0801 19.0937 16.0136 19.0937 15.947 19.1603C15.6807 19.36 15.5476 19.36 15.3479 19.1603C15.1482 18.9606 14.8819 18.6943 14.6822 18.4946C14.2163 18.9606 13.7503 19.4266 13.2843 19.8925C13.0846 20.0922 12.9515 20.2919 13.0181 20.6248C13.2178 22.4886 12.1527 24.0862 10.3554 24.7519C10.0892 24.885 9.75632 24.885 9.42349 24.9516C9.15723 24.9516 8.89096 24.9516 8.55813 24.9516ZM21.2057 5.64735C20.6066 5.58079 20.0075 5.71392 19.5416 5.98018C18.2102 6.71241 17.5446 8.1103 17.8108 9.64133C17.8774 9.90759 17.8108 10.0407 17.6111 10.2404C15.1482 12.7034 12.6852 15.1663 10.2889 17.5627C10.1557 17.6958 9.95602 17.7624 9.75632 17.6958C9.35693 17.6293 8.95753 17.6293 8.6247 17.6293C6.62771 17.8955 5.36295 19.7594 5.69578 21.6233C6.02861 23.4871 7.8259 24.6187 9.68976 24.2193C11.4205 23.8865 12.6187 22.0227 12.2193 20.2919C12.1527 20.0257 12.2193 19.8925 12.419 19.6928C13.8169 18.2949 15.2148 16.8971 16.6126 15.4992C17.6777 14.4341 18.7428 13.4356 19.7413 12.3705C19.8744 12.2374 20.0075 12.1708 20.2072 12.2374C20.4735 12.304 20.7398 12.304 21.006 12.304C22.537 12.2374 23.8018 11.2389 24.1346 9.70789C24.3343 9.44163 24.3343 9.1088 24.3343 8.84253H24.2678C24.2012 8.9091 24.1346 8.9091 24.1346 8.97567C23.6687 9.44163 23.1361 9.97416 22.6702 10.4401C22.537 10.5733 22.3373 10.6398 22.1376 10.5733C21.5386 10.3736 20.9395 10.1739 20.3404 9.97416C20.1407 9.90759 20.0075 9.77446 20.0075 9.64133C19.8078 9.04223 19.6081 8.44314 19.4084 7.91061C19.3419 7.71091 19.3419 7.51121 19.5416 7.31151C20.0741 6.84555 20.5401 6.31301 21.006 5.84705C21.0726 5.78048 21.1392 5.71392 21.2057 5.64735ZM20.0075 17.0968C19.5416 17.4296 19.009 17.363 18.6762 17.0302C18.2768 16.6308 18.2768 16.1648 18.6096 15.6323C18.4099 15.4326 18.2768 15.2995 18.0771 15.0998C17.1452 16.0317 16.2133 16.9636 15.2813 17.8955C15.4145 18.0287 15.6142 18.2284 15.8139 18.4281C15.8804 18.4281 15.8804 18.3615 15.947 18.3615C16.3464 18.1618 16.8789 18.2284 17.2117 18.5612C17.5446 18.894 17.6111 19.4266 17.3449 19.826C17.2783 19.9591 17.2783 20.0257 17.4114 20.1588C18.6096 21.357 19.7413 22.4886 20.9395 23.6868C21.006 23.7534 21.0726 23.8199 21.0726 23.8199C22.0045 22.888 23.003 21.8895 23.9349 20.9576C22.537 19.6928 21.2723 18.4281 20.0075 17.0968ZM24.2012 21.6233C23.3358 22.4886 22.4705 23.354 21.6717 24.1528C22.2708 24.419 23.1361 24.2859 23.6687 23.7534C24.2678 23.2208 24.4675 22.3555 24.2012 21.6233Z" fill="#212121"/>
<path d="M6.82767 4.98169C7.5599 5.38109 8.22556 5.84705 8.95779 6.24645C9.22406 6.37958 9.35719 6.57928 9.42375 6.84555C9.49032 7.51121 9.82315 8.04374 10.3557 8.5097C11.4873 9.64133 12.6189 10.773 13.7506 11.9046C13.8171 11.9711 13.8837 11.9711 13.8837 12.0377C13.684 12.1708 13.5509 12.3705 13.4177 12.5037C13.4177 12.5037 13.3512 12.4371 13.2846 12.3705C11.9533 11.0392 10.5554 9.64133 9.22406 8.31C9.15749 8.24344 9.02436 8.04374 9.02436 7.91061C8.89122 7.57777 8.82466 7.31151 8.75809 6.97868C8.75809 6.91211 8.69153 6.84555 8.69153 6.84555C8.02586 6.44615 7.42677 6.11332 6.82767 5.78048C6.49484 6.11332 6.16201 6.44615 5.82918 6.77898C6.16201 7.37808 6.5614 8.04374 6.89424 8.64283C6.89424 8.7094 7.02737 8.7094 7.09393 8.77597C7.3602 8.84253 7.5599 8.9091 7.82616 8.97567C8.09243 8.97567 8.29213 9.1088 8.49183 9.3085C9.82315 10.6398 11.0879 11.9046 12.4192 13.2359C12.4858 13.3025 12.5524 13.3025 12.6189 13.369C12.4192 13.5022 12.2861 13.7019 12.0864 13.835C12.0864 13.835 12.0198 13.7019 11.9533 13.7019C10.6219 12.3705 9.29062 11.0392 8.02586 9.77446C7.89273 9.64133 7.7596 9.57476 7.69303 9.57476C7.3602 9.5082 7.02737 9.44163 6.69454 9.3085C6.5614 9.24193 6.42827 9.17536 6.36171 9.04223C5.96231 8.31 5.56291 7.64434 5.09695 6.91211C5.03038 6.64585 5.03038 6.51271 5.16351 6.37958C5.56291 5.98018 6.02887 5.51422 6.42827 5.11482C6.49484 5.04826 6.5614 5.04826 6.62797 4.98169C6.69454 4.98169 6.7611 4.98169 6.82767 4.98169Z" fill="#212121"/>
<path d="M9.02412 22.9547C8.69128 22.9547 8.42502 22.9547 8.09219 22.9547C7.89249 22.9547 7.82592 22.8881 7.69279 22.755C7.35996 22.2224 7.09369 21.6899 6.76086 21.2239C6.6943 21.0908 6.6943 20.9577 6.76086 20.758C7.09369 20.2255 7.35996 19.6929 7.69279 19.227C7.82592 19.0273 7.89249 18.9607 8.09219 18.9607C8.69128 18.9607 9.35695 18.9607 9.95604 18.9607C10.1557 18.9607 10.2889 19.0273 10.3554 19.1604C10.6883 19.6929 10.9545 20.1589 11.2874 20.6914C11.4205 20.8911 11.4205 21.0242 11.2874 21.1574C10.9545 21.6899 10.6883 22.1559 10.3554 22.6884C10.2889 22.8881 10.1557 22.9547 9.95604 22.9547C9.62321 22.9547 9.35695 22.9547 9.02412 22.9547ZM9.02412 22.289C9.22381 22.289 9.49008 22.289 9.68978 22.289C9.75634 22.289 9.82291 22.2224 9.88948 22.1559C10.0892 21.7565 10.3554 21.4236 10.5551 21.0242C10.5551 20.9577 10.5551 20.8911 10.5551 20.8245C10.3554 20.4252 10.1557 20.0923 9.88948 19.6929C9.88948 19.6929 9.75634 19.6264 9.68978 19.6264C9.22381 19.6264 8.82442 19.6264 8.35845 19.6264C8.29189 19.6264 8.15875 19.6929 8.15875 19.7595C7.95905 20.0923 7.69279 20.4917 7.49309 20.8245C7.42652 20.8911 7.49309 21.0242 7.49309 21.0908C7.69279 21.4902 7.95905 21.823 8.15875 22.1559C8.22532 22.289 8.29189 22.289 8.35845 22.289C8.62472 22.289 8.82442 22.289 9.02412 22.289Z" fill="#212121"/>
<path d="M18.4766 11.1057C18.6097 11.2388 18.7429 11.372 18.876 11.5051C16.413 13.9681 14.0166 16.3644 11.5537 18.8274C11.4206 18.6943 11.2874 18.5611 11.1543 18.428C13.6172 15.9651 16.0136 13.5687 18.4766 11.1057Z" fill="#212121"/>
<path d="M18.4766 18.8274C18.6097 18.6942 18.7428 18.5611 18.876 18.428C19.941 19.493 21.0726 20.6247 22.2043 21.7563C22.0711 21.8894 21.8714 22.0226 21.7383 22.1557C20.6732 21.0241 19.6082 19.959 18.4766 18.8274Z" fill="#212121"/>
</svg>
